<svg width="16" height="17" viewBox="0 0 16 17" fill="none" xmlns="http://www.w3.org/2000/svg">
<g clip-path="url(#clip0_55_89)">
<path d="M0 12.7236C0.00105857 13.6074 0.352588 14.4546 0.97748 15.0795C1.60237 15.7044 2.4496 16.0559 3.33333 16.057H12.6667C13.5504 16.0559 14.3976 15.7044 15.0225 15.0795C15.6474 14.4546 15.9989 13.6074 16 12.7236V6.72363H0V12.7236ZM11.3333 9.72363C11.5311 9.72363 11.7245 9.78228 11.8889 9.89216C12.0534 10.002 12.1815 10.1582 12.2572 10.3409C12.3329 10.5237 12.3527 10.7247 12.3141 10.9187C12.2755 11.1127 12.1803 11.2909 12.0404 11.4307C11.9006 11.5706 11.7224 11.6658 11.5284 11.7044C11.3344 11.743 11.1334 11.7232 10.9507 11.6475C10.7679 11.5718 10.6117 11.4437 10.5019 11.2792C10.392 11.1148 10.3333 10.9214 10.3333 10.7236C10.3333 10.4584 10.4387 10.2041 10.6262 10.0165C10.8138 9.82899 11.0681 9.72363 11.3333 9.72363ZM8 9.72363C8.19778 9.72363 8.39112 9.78228 8.55557 9.89216C8.72002 10.002 8.84819 10.1582 8.92388 10.3409C8.99957 10.5237 9.01937 10.7247 8.98079 10.9187C8.9422 11.1127 8.84696 11.2909 8.70711 11.4307C8.56726 11.5706 8.38907 11.6658 8.19509 11.7044C8.00111 11.743 7.80004 11.7232 7.61732 11.6475C7.43459 11.5718 7.27841 11.4437 7.16853 11.2792C7.05865 11.1148 7 10.9214 7 10.7236C7 10.4584 7.10536 10.2041 7.29289 10.0165C7.48043 9.82899 7.73478 9.72363 8 9.72363ZM4.66667 9.72363C4.86445 9.72363 5.05779 9.78228 5.22224 9.89216C5.38669 10.002 5.51486 10.1582 5.59055 10.3409C5.66623 10.5237 5.68604 10.7247 5.64745 10.9187C5.60887 11.1127 5.51363 11.2909 5.37377 11.4307C5.23392 11.5706 5.05574 11.6658 4.86176 11.7044C4.66778 11.743 4.46671 11.7232 4.28398 11.6475C4.10126 11.5718 3.94508 11.4437 3.8352 11.2792C3.72532 11.1148 3.66667 10.9214 3.66667 10.7236C3.66667 10.4584 3.77202 10.2041 3.95956 10.0165C4.1471 9.82899 4.40145 9.72363 4.66667 9.72363Z" fill="#737373"/>
<path d="M12.6667 1.39022H12V0.723551C12 0.54674 11.9298 0.377171 11.8047 0.252147C11.6797 0.127123 11.5101 0.0568848 11.3333 0.0568848C11.1565 0.0568848 10.987 0.127123 10.8619 0.252147C10.7369 0.377171 10.6667 0.54674 10.6667 0.723551V1.39022H5.33333V0.723551C5.33333 0.54674 5.2631 0.377171 5.13807 0.252147C5.01305 0.127123 4.84348 0.0568848 4.66667 0.0568848C4.48986 0.0568848 4.32029 0.127123 4.19526 0.252147C4.07024 0.377171 4 0.54674 4 0.723551V1.39022H3.33333C2.4496 1.39128 1.60237 1.74281 0.97748 2.3677C0.352588 2.99259 0.00105857 3.83982 0 4.72355L0 5.39022H16V4.72355C15.9989 3.83982 15.6474 2.99259 15.0225 2.3677C14.3976 1.74281 13.5504 1.39128 12.6667 1.39022Z" fill="#737373"/>
</g>
<defs>
<clipPath id="clip0_55_89">
<rect width="16" height="16" fill="white" transform="translate(0 0.0568848)"/>
</clipPath>
</defs>
</svg>
