<?xml version="1.0" standalone="no"?>
<!DOCTYPE svg PUBLIC "-//W3C//DTD SVG 20010904//EN"
 "http://www.w3.org/TR/2001/REC-SVG-20010904/DTD/svg10.dtd">
<svg version="1.0" xmlns="http://www.w3.org/2000/svg"
 width="1280.000000pt" height="1280.000000pt" viewBox="0 0 1280.000000 1280.000000"
 preserveAspectRatio="xMidYMid meet">
<g transform="translate(0.000000,1280.000000) scale(0.100000,-0.100000)"
fill="#FFFFFF" stroke="none">
<path d="M6145 12790 c-38 -5 -144 -13 -235 -20 -1352 -95 -2637 -632 -3700
-1544 -135 -116 -520 -501 -636 -636 -385 -448 -665 -873 -920 -1395 -355
-728 -568 -1512 -624 -2300 -6 -88 -15 -201 -21 -252 -12 -117 -12 -369 0
-486 6 -51 15 -164 21 -252 83 -1168 512 -2324 1222 -3294 185 -251 370 -464
632 -727 263 -262 476 -447 727 -632 972 -712 2123 -1139 3294 -1222 88 -6
201 -15 252 -21 117 -12 369 -12 486 0 51 6 164 15 252 21 808 57 1617 281
2357 651 489 245 910 526 1338 893 135 116 520 501 636 636 385 448 665 873
920 1395 355 728 568 1512 624 2300 6 88 15 201 21 252 12 117 12 369 0 486
-6 51 -15 164 -21 252 -83 1168 -512 2324 -1222 3294 -185 251 -370 464 -632
727 -263 262 -476 447 -727 632 -972 712 -2123 1139 -3294 1222 -88 6 -201 15
-252 21 -106 10 -396 10 -498 -1z m-17 -2107 l-3 -1028 -130 3 c-385 7 -1002
65 -1518 143 -48 7 -81 17 -84 25 -8 21 142 383 327 789 86 189 466 944 484
963 33 33 642 126 859 131 l67 1 -2 -1027z m752 1017 c265 -25 692 -97 717
-123 18 -18 393 -766 482 -962 184 -402 352 -807 342 -823 -14 -23 -602 -91
-1061 -122 -190 -13 -672 -29 -682 -23 -5 2 -8 467 -8 1034 l0 1029 48 0 c26
0 99 -5 162 -10z m-2340 -329 c0 -5 -80 -168 -178 -363 -178 -352 -309 -631
-437 -931 -37 -86 -71 -159 -75 -162 -26 -16 -1138 248 -1165 276 -11 12 66
88 268 260 421 359 928 669 1427 873 138 57 160 63 160 47z m3868 -42 c483
-195 1013 -516 1414 -856 153 -130 318 -284 318 -298 0 -16 -8 -19 -265 -88
-378 -103 -899 -217 -915 -201 -5 5 -51 108 -103 229 -136 318 -238 536 -429
913 -92 183 -168 337 -168 343 0 16 17 11 148 -42z m-5907 -1609 c232 -65 649
-169 859 -215 274 -59 292 -63 298 -69 3 -4 -44 -156 -106 -339 -199 -596
-317 -1047 -416 -1597 -38 -207 -78 -487 -96 -660 -5 -58 -13 -120 -16 -137
l-5 -33 -966 0 -966 0 7 113 c45 748 296 1579 680 2247 183 317 484 740 527
740 11 0 101 -23 200 -50z m8055 1 c97 -109 346 -475 470 -691 384 -670 635
-1499 680 -2247 l7 -113 -966 0 -966 0 -5 33 c-3 17 -13 97 -22 177 -76 704
-234 1400 -496 2187 -55 166 -98 308 -95 315 3 8 67 27 158 46 322 69 782 191
1084 286 61 19 113 35 117 35 5 1 19 -12 34 -28z m-6136 -416 c506 -76 1096
-135 1505 -150 88 -4 170 -8 183 -11 l22 -4 0 -1235 0 -1235 -1271 0 -1272 0
7 78 c43 475 179 1181 331 1722 94 335 253 829 276 856 6 8 21 12 33 9 11 -2
95 -16 186 -30z m4284 -272 c207 -628 345 -1195 441 -1809 26 -171 65 -481 65
-526 l0 -28 -1270 0 -1270 0 2 1233 3 1232 236 7 c532 15 1096 62 1514 127 66
10 137 19 157 20 l37 1 85 -257z m-5713 -3268 c7 -353 15 -493 44 -765 56
-507 161 -1012 314 -1505 22 -71 37 -133 33 -137 -4 -3 -125 -36 -269 -72
-283 -70 -466 -121 -690 -192 -77 -24 -147 -42 -155 -39 -16 7 -126 149 -239
311 -537 765 -881 1740 -935 2650 l-7 114 949 -2 949 -3 6 -360z m3137 -867
l-3 -1233 -245 -7 c-629 -18 -1161 -68 -1784 -169 -103 -17 -192 -27 -196 -22
-8 8 -65 205 -114 393 -59 227 -128 584 -166 858 -46 337 -61 555 -67 974 -3
224 -3 414 0 422 6 14 135 16 1292 16 l1285 0 -2 -1232z m3116 822 c-1 -419
-10 -566 -55 -925 -23 -186 -67 -448 -104 -626 -55 -260 -181 -729 -202 -750
-5 -5 -55 -1 -119 11 -565 104 -1252 184 -1809 210 -132 7 -250 14 -262 16
l-23 4 0 1235 0 1235 1288 -2 1287 -3 -1 -405z m2462 298 c-48 -800 -325
-1672 -754 -2373 -118 -192 -309 -465 -410 -585 l-30 -35 -98 26 c-55 15 -196
52 -314 84 -117 31 -322 83 -455 114 -234 55 -240 58 -239 81 0 14 24 102 53
195 234 756 351 1534 351 2331 0 143 3 264 7 267 3 4 432 7 951 7 l945 0 -7
-112z m-5578 -3897 l2 -1034 -119 7 c-140 8 -385 38 -550 67 -214 38 -485 103
-509 122 -28 22 -183 271 -344 552 -210 367 -553 1103 -527 1130 22 22 736
115 1149 150 219 18 740 43 860 41 l35 -1 3 -1034z m1052 1003 c331 -22 696
-60 1040 -110 223 -32 475 -76 484 -84 10 -10 10 -11 -92 -250 -155 -366 -379
-794 -605 -1157 -149 -238 -156 -247 -208 -260 -393 -98 -720 -153 -1010 -169
l-119 -7 0 1025 c0 563 3 1028 8 1032 8 9 162 2 502 -20z m-3575 -332 c147
-352 329 -714 536 -1064 55 -92 99 -170 99 -173 0 -18 -60 6 -232 93 -461 235
-826 488 -1215 844 -73 67 -133 127 -133 134 0 16 33 26 331 105 269 71 560
138 575 132 6 -2 24 -34 39 -71z m5712 22 c354 -80 784 -191 798 -206 7 -7
-13 -31 -60 -75 -412 -380 -785 -642 -1263 -885 -172 -87 -232 -111 -232 -93
0 3 44 81 99 173 205 348 437 809 542 1080 10 26 25 27 116 6z"/>
</g>
</svg>
