<svg width="20" height="21" viewBox="0 0 20 21" fill="none" xmlns="http://www.w3.org/2000/svg">
<path fill-rule="evenodd" clip-rule="evenodd" d="M10 0.0566406C4.47715 0.0566406 0 4.53379 0 10.0566C0 15.5795 4.47715 20.0566 10 20.0566C15.5228 20.0566 20 15.5795 20 10.0566C20 4.53379 15.5228 0.0566406 10 0.0566406ZM7.80137 4.75553C8.37026 4.72964 8.55204 4.72331 10.0005 4.72331H9.99883C11.4477 4.72331 11.6288 4.72964 12.1977 4.75553C12.7655 4.78153 13.1533 4.87142 13.4933 5.00331C13.8444 5.13942 14.1411 5.32165 14.4378 5.61832C14.7344 5.91476 14.9167 6.21232 15.0533 6.5631C15.1844 6.90222 15.2744 7.28978 15.3011 7.85756C15.3267 8.42646 15.3333 8.60824 15.3333 10.0567C15.3333 11.5052 15.3267 11.6865 15.3011 12.2554C15.2744 12.8229 15.1844 13.2106 15.0533 13.5498C14.9167 13.9005 14.7344 14.1981 14.4378 14.4945C14.1414 14.7912 13.8443 14.9739 13.4936 15.1101C13.1543 15.242 12.7663 15.3319 12.1985 15.3579C11.6296 15.3838 11.4484 15.3901 9.99983 15.3901C8.55148 15.3901 8.36982 15.3838 7.80092 15.3579C7.23325 15.3319 6.84558 15.242 6.50624 15.1101C6.15568 14.9739 5.85812 14.7912 5.56179 14.4945C5.26523 14.1981 5.083 13.9005 4.94667 13.5497C4.81489 13.2106 4.725 12.8231 4.69889 12.2553C4.67311 11.6864 4.66667 11.5052 4.66667 10.0567C4.66667 8.60824 4.67333 8.42635 4.69878 7.85745C4.72433 7.28989 4.81433 6.90222 4.94656 6.56299C5.08323 6.21232 5.26545 5.91476 5.56212 5.61832C5.85857 5.32176 6.15613 5.13953 6.50691 5.00331C6.84602 4.87142 7.23358 4.78153 7.80137 4.75553Z" fill="#737373"/>
<path fill-rule="evenodd" clip-rule="evenodd" d="M9.52199 5.68444C9.61489 5.68429 9.71483 5.68434 9.82268 5.68439L10.0004 5.68444C11.4245 5.68444 11.5932 5.68955 12.1556 5.71511C12.6756 5.73888 12.9578 5.82577 13.1458 5.89877C13.3947 5.99544 13.5721 6.111 13.7587 6.29767C13.9454 6.48434 14.0609 6.66212 14.1578 6.91101C14.2308 7.09879 14.3178 7.38101 14.3415 7.90102C14.367 8.46325 14.3726 8.63214 14.3726 10.0555C14.3726 11.4788 14.367 11.6477 14.3415 12.21C14.3177 12.73 14.2308 13.0122 14.1578 13.2C14.0611 13.4489 13.9454 13.6261 13.7587 13.8126C13.572 13.9993 13.3948 14.1149 13.1458 14.2115C12.958 14.2849 12.6756 14.3715 12.1556 14.3953C11.5933 14.4209 11.4245 14.4264 10.0004 14.4264C8.57632 14.4264 8.40754 14.4209 7.84531 14.3953C7.3253 14.3713 7.04308 14.2844 6.85496 14.2114C6.60607 14.1147 6.42829 13.9992 6.24162 13.8125C6.05496 13.6259 5.9394 13.4485 5.84251 13.1995C5.76951 13.0117 5.68251 12.7295 5.65884 12.2095C5.63328 11.6473 5.62817 11.4784 5.62817 10.0542C5.62817 8.62991 5.63328 8.46191 5.65884 7.89968C5.68262 7.37968 5.76951 7.09745 5.84251 6.90945C5.93918 6.66056 6.05496 6.48278 6.24162 6.29611C6.42829 6.10944 6.60607 5.99389 6.85496 5.897C7.04297 5.82366 7.3253 5.73699 7.84531 5.71311C8.33731 5.69088 8.52798 5.68422 9.52199 5.68311V5.68444ZM12.8474 6.57C12.494 6.57 12.2074 6.85634 12.2074 7.20979C12.2074 7.56313 12.494 7.84979 12.8474 7.84979C13.2007 7.84979 13.4874 7.56313 13.4874 7.20979C13.4874 6.85645 13.2007 6.56978 12.8474 6.56978V6.57ZM7.26152 10.0567C7.26152 8.54417 8.48781 7.31785 10.0003 7.31779C11.5129 7.31779 12.7389 8.54414 12.7389 10.0567C12.7389 11.5693 11.513 12.7951 10.0004 12.7951C8.48787 12.7951 7.26152 11.5693 7.26152 10.0567Z" fill="#737373"/>
<path d="M10.0005 8.27881C10.9822 8.27881 11.7782 9.07471 11.7782 10.0566C11.7782 11.0384 10.9822 11.8344 10.0005 11.8344C9.01855 11.8344 8.22266 11.0384 8.22266 10.0566C8.22266 9.07471 9.01855 8.27881 10.0005 8.27881Z" fill="#737373"/>
</svg>
