<svg width="172" height="310" viewBox="0 0 172 310" fill="none" xmlns="http://www.w3.org/2000/svg">
<path d="M120.916 136.842C121.739 137.254 122.593 137.62 123.462 137.94C122.593 137.635 121.739 137.269 120.916 136.842Z" fill="white"/>
<path d="M130.794 136.553L125.687 138.641C125.383 138.565 125.078 138.473 124.788 138.382C125.078 138.458 125.383 138.55 125.687 138.626L130.794 136.553Z" fill="white"/>
<path d="M133.706 151.828V218.08C133.706 220.641 133.035 223.172 131.739 225.397L129.255 229.711L127.7 232.41L124.224 238.462L123.401 237.044L119.193 229.711L116.724 225.413C115.443 223.187 114.757 220.656 114.757 218.08V150.806C117.029 151.889 119.407 152.757 121.907 153.398C125.078 154.206 128.416 153.977 131.45 152.742L133.706 151.828Z" fill="white"/>
<path d="M58.3222 168.52V218.08C58.3222 220.641 57.6514 223.172 56.3556 225.397L53.8708 229.711L48.8401 238.462L43.8095 229.711L41.3399 225.413C40.0593 223.187 39.3733 220.656 39.3733 218.08V181.234C45.5473 179.71 51.142 176.386 55.4257 171.691L58.3222 168.52Z" fill="white"/>
<path d="M96.8449 69.9649V240.459C96.8449 243.02 96.0827 245.55 94.6345 247.776L91.8295 252.09L86.1585 260.841L80.4876 252.09L77.6826 247.776C76.2344 245.55 75.4874 243.02 75.4874 240.459V69.9649L86.1738 60.4828L96.8449 69.9649Z" fill="white"/>
<path d="M127.745 49.7508L114.056 61.367H97.348L96.54 60.8182L86.3872 53.9277L76.2801 60.803L75.4417 61.367H59.0234L45.3339 49.7508C45.5626 49.6745 45.7608 49.5983 46.0047 49.5069C53.2153 46.9458 65.2432 43.5005 79.2985 42.5859V13.3165L75.6856 10.1152L86.1585 0.816101L96.6162 10.1152L93.0338 13.3013V42.5249C107.409 43.3938 119.712 46.9001 127.075 49.5069C127.319 49.5983 127.517 49.6745 127.745 49.7508Z" fill="white"/>
<path d="M144.042 49.3544L144.057 49.3693H144.042V49.3544Z" fill="white"/>
<path d="M172 91.0022V228.065C172 231.678 170.811 235.016 168.814 237.715C168.783 237.745 168.753 237.791 168.738 237.821C146.481 267.106 118.401 291.726 86.25 310.004C54.1452 291.772 26.1107 267.198 3.86902 237.974C3.76231 237.852 3.67084 237.73 3.57938 237.608C1.78053 235.138 0.667689 232.151 0.5 228.903V149.297C0.515244 132.589 8.65578 117.771 21.1867 108.61C18.1531 114.021 16.4304 120.241 16.4304 126.872C16.4304 129.296 16.6591 131.659 17.1012 133.946C17.1317 134.114 17.1622 134.266 17.1927 134.434C17.2994 134.952 17.4213 135.47 17.5433 135.989C17.9244 137.345 18.4884 138.626 19.1897 139.815C19.3421 140.059 19.4946 140.318 19.6623 140.562C19.83 140.806 19.9976 141.035 20.1806 141.263C20.3483 141.507 20.5312 141.736 20.7294 141.949C20.8971 142.163 21.0952 142.376 21.2934 142.574C21.5221 142.833 21.766 143.077 22.0252 143.321C22.2081 143.489 22.391 143.657 22.5892 143.809C23.0313 144.19 23.5039 144.556 23.9917 144.876C24.2356 145.044 24.4795 145.196 24.7387 145.349C24.9826 145.501 25.2417 145.654 25.5009 145.776C25.7753 145.913 26.0344 146.05 26.3088 146.172C27.1016 146.553 27.9552 146.858 28.8242 147.087C29.1291 147.163 29.434 147.239 29.7541 147.3C30.0285 147.361 30.3029 147.407 30.5925 147.452C30.684 147.376 30.7907 147.315 30.8822 147.224C43.1082 138.275 51.0506 123.808 51.0506 107.481C51.0506 96.0634 47.1632 85.56 40.6539 77.2213C48.8706 81.8403 55.6849 88.6241 60.3497 96.8104C62.362 100.347 63.7492 104.204 64.4809 108.198C64.5724 108.716 64.6486 109.204 64.6944 109.631C64.8468 111.293 65.8072 117.543 63.6577 127.36C62.1638 134.129 59.5265 140.592 56.066 146.599C52.3768 153.032 48.7182 157.072 42.3155 161.767C38.8855 164.282 34.7848 165.609 30.5925 165.609C29.5712 165.609 28.5345 165.532 27.5132 165.365C27.1168 165.304 26.4918 165.212 25.7448 165.045C24.9978 164.907 24.388 164.755 24.0069 164.648L23.885 164.618L23.763 164.587C22.5892 164.282 21.4306 163.916 20.3025 163.49V221.754C20.3025 225.153 21.5068 228.446 23.6411 231.099C41.3399 253.188 62.3467 271.908 86.2348 286.924C110.077 271.939 131.023 253.264 148.691 231.282C150.917 228.492 152.167 225.047 152.167 221.479V123.061C143.508 130.074 137.182 133.915 131.419 136.293L130.779 136.553L125.672 138.626C125.367 138.55 125.062 138.458 124.773 138.382C124.331 138.245 123.873 138.108 123.446 137.94C122.578 137.62 121.724 137.254 120.901 136.842C120.489 136.644 120.077 136.415 119.681 136.187C119.346 135.989 118.995 135.775 118.66 135.547C118.477 135.455 118.309 135.333 118.141 135.211C116.876 134.342 115.718 133.367 114.65 132.299C110.809 128.412 108.309 123.214 107.867 117.421V115.637C107.867 114.296 107.943 112.954 108.126 111.628C108.858 105.576 111.312 99.8288 115.443 95.3317C117.318 93.2889 119.452 91.5205 121.907 90.0876C121.221 91.551 120.672 93.0602 120.245 94.6609C119.59 97.0543 119.239 99.5849 119.239 102.207C119.239 108 120.946 113.427 123.904 117.939C135.657 113.137 143.874 107.771 148.508 98.8531C150.81 94.4322 152.228 89.1272 152.762 82.5568C152.868 81.1696 152.929 79.7671 152.929 78.3646C152.929 68.2728 150.033 58.8517 145.048 50.9246C144.728 50.4063 144.377 49.888 144.042 49.3697C144.53 49.5678 145.017 49.7813 145.505 49.9947C146.953 50.6502 148.371 51.3819 149.728 52.1746C151.542 53.2417 153.28 54.4461 154.926 55.7418C155.551 56.2297 156.146 56.7327 156.74 57.251C157.335 57.7846 157.914 58.3182 158.478 58.867C166.329 66.5654 171.39 77.145 171.924 88.8833C171.97 89.5998 171.985 90.2857 171.985 91.0022H172Z" fill="white"/>
<path d="M149.743 52.1746C148.386 51.3819 146.969 50.6502 145.52 49.9947C146.969 50.635 148.386 51.3667 149.743 52.1746Z" fill="white"/>
<path d="M145.52 49.9947C146.969 50.6502 148.386 51.3819 149.743 52.1746C148.386 51.3667 146.969 50.635 145.52 49.9947ZM123.401 237.044L124.224 238.462L127.7 232.41C126.297 233.98 124.864 235.52 123.401 237.044Z" fill="white"/>
</svg>
