<svg width="20" height="21" viewBox="0 0 20 21" fill="none" xmlns="http://www.w3.org/2000/svg">
<g clip-path="url(#clip0_11_1297)">
<path d="M10.0001 0.591797C7.79507 0.594223 5.68101 1.47119 4.12173 3.03032C2.56245 4.58945 1.68526 6.70342 1.68262 8.90847C1.68262 11.0501 3.34095 14.4018 6.61178 18.8701C7.00117 19.4036 7.511 19.8375 8.09979 20.1367C8.68857 20.4359 9.33968 20.5918 10.0001 20.5918C10.6606 20.5918 11.3117 20.4359 11.9004 20.1367C12.4892 19.8375 12.9991 19.4036 13.3885 18.8701C16.6593 14.4018 18.3176 11.0501 18.3176 8.90847C18.315 6.70342 17.4378 4.58945 15.8785 3.03032C14.3192 1.47119 12.2052 0.594223 10.0001 0.591797ZM10.0001 12.2235C9.34085 12.2235 8.69638 12.028 8.14822 11.6617C7.60005 11.2954 7.17281 10.7748 6.92052 10.1657C6.66823 9.55666 6.60222 8.88643 6.73083 8.23983C6.85945 7.59323 7.17692 6.99928 7.64309 6.53311C8.10927 6.06693 8.70321 5.74946 9.34982 5.62085C9.99642 5.49223 10.6666 5.55824 11.2757 5.81053C11.8848 6.06282 12.4054 6.49007 12.7717 7.03823C13.138 7.58639 13.3335 8.23086 13.3335 8.89013C13.3335 9.77419 12.9823 10.622 12.3571 11.2472C11.732 11.8723 10.8842 12.2235 10.0001 12.2235Z" fill="#737373"/>
</g>
<defs>
<clipPath id="clip0_11_1297">
<rect width="20" height="20" fill="white" transform="translate(0 0.556641)"/>
</clipPath>
</defs>
</svg>
