<svg width="20" height="21" viewBox="0 0 20 21" fill="none" xmlns="http://www.w3.org/2000/svg">
<g clip-path="url(#clip0_11_1285)">
<path d="M19.1667 9.72331C18.9457 9.72331 18.7337 9.63551 18.5774 9.47923C18.4211 9.32295 18.3333 9.11099 18.3333 8.88998C18.3316 7.12241 17.6286 5.42774 16.3788 4.17788C15.1289 2.92802 13.4342 2.22507 11.6667 2.22331C11.4457 2.22331 11.2337 2.13551 11.0774 1.97923C10.9211 1.82295 10.8333 1.61099 10.8333 1.38998C10.8333 1.16896 10.9211 0.957 11.0774 0.80072C11.2337 0.64444 11.4457 0.556642 11.6667 0.556642C13.8761 0.559069 15.9943 1.43782 17.5565 3.0001C19.1188 4.56238 19.9976 6.68058 20 8.88998C20 9.11099 19.9122 9.32295 19.7559 9.47923C19.5996 9.63551 19.3877 9.72331 19.1667 9.72331ZM16.6667 8.88998C16.6667 7.56389 16.1399 6.29212 15.2022 5.35444C14.2645 4.41676 12.9928 3.88998 11.6667 3.88998C11.4457 3.88998 11.2337 3.97777 11.0774 4.13405C10.9211 4.29033 10.8333 4.5023 10.8333 4.72331C10.8333 4.94432 10.9211 5.15628 11.0774 5.31256C11.2337 5.46884 11.4457 5.55664 11.6667 5.55664C12.5507 5.55664 13.3986 5.90783 14.0237 6.53295C14.6488 7.15807 15 8.00592 15 8.88998C15 9.11099 15.0878 9.32295 15.2441 9.47923C15.4004 9.63551 15.6123 9.72331 15.8333 9.72331C16.0543 9.72331 16.2663 9.63551 16.4226 9.47923C16.5789 9.32295 16.6667 9.11099 16.6667 8.88998ZM18.4858 19.0266L19.2442 18.1525C19.7268 17.6682 19.9979 17.0124 19.9979 16.3287C19.9979 15.645 19.7268 14.9892 19.2442 14.505C19.2183 14.4791 17.2133 12.9366 17.2133 12.9366C16.7321 12.4786 16.0929 12.2235 15.4286 12.2245C14.7642 12.2254 14.1258 12.4822 13.6458 12.9416L12.0575 14.28C10.761 13.7434 9.58324 12.956 8.59191 11.9629C7.60057 10.9699 6.81518 9.79075 6.28084 8.49331L7.61417 6.90998C8.07393 6.43012 8.33108 5.79154 8.33217 5.12698C8.33326 4.46242 8.07819 3.823 7.62 3.34164C7.62 3.34164 6.07584 1.33914 6.05 1.31331C5.57455 0.834766 4.9299 0.562494 4.25536 0.555321C3.58081 0.548148 2.93053 0.806651 2.445 1.27498L1.48667 2.10831C-4.175 8.67664 8.01667 20.7741 14.8017 20.5566C15.4868 20.5606 16.1658 20.4273 16.7986 20.1645C17.4314 19.9017 18.0051 19.5148 18.4858 19.0266Z" fill="#737373"/>
</g>
<defs>
<clipPath id="clip0_11_1285">
<rect width="20" height="20" fill="white" transform="translate(0 0.556641)"/>
</clipPath>
</defs>
</svg>
