<svg width="24" height="25" viewBox="0 0 24 25" fill="none" xmlns="http://www.w3.org/2000/svg">
<path d="M22.95 9.6567C22.7625 9.46923 22.5082 9.36392 22.243 9.36392C21.9779 9.36392 21.7236 9.46923 21.536 9.6567L10.644 20.5957C10.1797 21.0601 9.62853 21.4284 9.02188 21.6797C8.41524 21.9311 7.76503 22.0605 7.10838 22.0605C5.78221 22.0606 4.51033 21.5339 3.57252 20.5962C2.63472 19.6585 2.10781 18.3867 2.10772 17.0606C2.10762 15.7344 2.63435 14.4625 3.57202 13.5247L14.121 2.9327C14.6851 2.3776 15.4457 2.06787 16.2371 2.071C17.0285 2.07413 17.7866 2.38986 18.3463 2.94941C18.906 3.50896 19.2219 4.267 19.2252 5.05841C19.2285 5.84982 18.919 6.61048 18.364 7.1747L7.81502 17.7667C7.62477 17.949 7.37149 18.0507 7.10802 18.0507C6.84456 18.0507 6.59127 17.949 6.40102 17.7667C6.21355 17.5792 6.10824 17.3249 6.10824 17.0597C6.10824 16.7945 6.21355 16.5402 6.40102 16.3527L15.793 6.9177C15.9752 6.7291 16.076 6.4765 16.0737 6.2143C16.0714 5.95211 15.9662 5.70129 15.7808 5.51589C15.5954 5.33048 15.3446 5.22531 15.0824 5.22303C14.8202 5.22075 14.5676 5.32155 14.379 5.5037L4.98702 14.9387C4.70839 15.2173 4.48737 15.548 4.33657 15.912C4.18578 16.276 4.10816 16.6662 4.10816 17.0602C4.10816 17.4542 4.18578 17.8444 4.33657 18.2084C4.48737 18.5724 4.70839 18.9031 4.98702 19.1817C5.55864 19.7272 6.3184 20.0315 7.10852 20.0315C7.89864 20.0315 8.6584 19.7272 9.23002 19.1817L19.778 8.5887C20.696 7.64701 21.206 6.38156 21.1976 5.06648C21.1892 3.7514 20.663 2.49258 19.733 1.56273C18.803 0.632871 17.5441 0.106849 16.229 0.098609C14.914 0.0903691 13.6486 0.600575 12.707 1.5187L2.15802 12.1107C0.845201 13.4235 0.107666 15.2041 0.107666 17.0607C0.107666 18.9173 0.845201 20.6979 2.15802 22.0107C3.47084 23.3235 5.25141 24.0611 7.10802 24.0611C8.96463 24.0611 10.7452 23.3235 12.058 22.0107L22.95 11.0747C23.0435 10.9818 23.1176 10.8713 23.1682 10.7496C23.2188 10.628 23.2448 10.4975 23.2448 10.3657C23.2448 10.2339 23.2188 10.1035 23.1682 9.98178C23.1176 9.86011 23.0435 9.74963 22.95 9.6567Z" fill="#2A8BEC"/>
</svg>
