<svg width="20" height="21" viewBox="0 0 20 21" fill="none" xmlns="http://www.w3.org/2000/svg">
<g clip-path="url(#clip0_11_1291)">
<path d="M19.9617 5.1748L12.9467 12.1898C12.1645 12.97 11.1048 13.4082 10 13.4082C8.89521 13.4082 7.83552 12.97 7.05333 12.1898L0.0383333 5.1748C0.0266667 5.30647 0 5.42564 0 5.55647V15.5565C0.00132321 16.6611 0.440735 17.7202 1.22185 18.5013C2.00296 19.2824 3.062 19.7218 4.16667 19.7231H15.8333C16.938 19.7218 17.997 19.2824 18.7782 18.5013C19.5593 17.7202 19.9987 16.6611 20 15.5565V5.55647C20 5.42564 19.9733 5.30647 19.9617 5.1748Z" fill="#737373"/>
<path d="M11.7685 11.0118L19.3801 3.3993C19.0114 2.7879 18.4913 2.28183 17.8701 1.92991C17.2489 1.57799 16.5474 1.39209 15.8335 1.39014H4.16678C3.4528 1.39209 2.75137 1.57799 2.13014 1.92991C1.50891 2.28183 0.988849 2.7879 0.620117 3.3993L8.23178 11.0118C8.70143 11.4796 9.33727 11.7422 10.0001 11.7422C10.663 11.7422 11.2988 11.4796 11.7685 11.0118Z" fill="#737373"/>
</g>
<defs>
<clipPath id="clip0_11_1291">
<rect width="20" height="20" fill="white" transform="translate(0 0.556641)"/>
</clipPath>
</defs>
</svg>
