<svg width="172" height="310" viewBox="0 0 172 310" fill="none" xmlns="http://www.w3.org/2000/svg">
<path d="M120.416 136.026C121.239 136.438 122.093 136.804 122.962 137.124C122.093 136.819 121.239 136.453 120.416 136.026Z" fill="#1D1F22"/>
<path d="M130.294 135.737L125.187 137.825C124.883 137.749 124.578 137.657 124.288 137.566C124.578 137.642 124.883 137.734 125.187 137.81L130.294 135.737Z" fill="#1D1F22"/>
<path d="M133.206 151.011V217.264C133.206 219.825 132.535 222.355 131.239 224.581L128.755 228.895L127.2 231.594L123.724 237.646L122.901 236.228L118.693 228.895L116.224 224.596C114.943 222.371 114.257 219.84 114.257 217.264V149.99C116.529 151.072 118.907 151.941 121.407 152.582C124.578 153.39 127.916 153.161 130.95 151.926L133.206 151.011Z" fill="#1D1F22"/>
<path d="M57.8222 167.704V217.264C57.8222 219.825 57.1514 222.356 55.8557 224.581L53.3708 228.895L48.3402 237.646L43.3095 228.895L40.8399 224.596C39.5594 222.371 38.8734 219.84 38.8734 217.264V180.418C45.0474 178.894 50.6421 175.57 54.9258 170.875L57.8222 167.704Z" fill="#1D1F22"/>
<path d="M96.3449 69.1488V239.643C96.3449 242.204 95.5827 244.734 94.1345 246.96L91.3295 251.274L85.6585 260.024L79.9876 251.274L77.1826 246.96C75.7344 244.734 74.9874 242.204 74.9874 239.643V69.1488L85.6738 59.6667L96.3449 69.1488Z" fill="#1D1F22"/>
<path d="M127.245 48.9347L113.556 60.5509H96.848L96.04 60.0021L85.8872 53.1116L75.7801 59.9869L74.9417 60.5509H58.5234L44.8339 48.9347C45.0626 48.8584 45.2608 48.7822 45.5047 48.6908C52.7153 46.1297 64.7432 42.6844 78.7985 41.7698V12.5004L75.1856 9.29911L85.6585 0L96.1162 9.29911L92.5338 12.4852V41.7088C106.909 42.5777 119.212 46.084 126.575 48.6908C126.819 48.7822 127.017 48.8584 127.245 48.9347Z" fill="#1D1F22"/>
<path d="M143.542 48.5383L143.557 48.5532H143.542V48.5383Z" fill="#1D1F22"/>
<path d="M171.5 90.1861V227.249C171.5 230.862 170.311 234.2 168.314 236.899C168.283 236.929 168.253 236.975 168.238 237.005C145.981 266.29 117.901 290.91 85.75 309.188C53.6452 290.955 25.6107 266.381 3.36902 237.158C3.26231 237.036 3.17084 236.914 3.07938 236.792C1.28053 234.322 0.167689 231.334 0 228.087V148.481C0.0152444 131.773 8.15578 116.955 20.6867 107.793C17.6531 113.205 15.9304 119.425 15.9304 126.056C15.9304 128.48 16.1591 130.843 16.6012 133.13C16.6317 133.297 16.6622 133.45 16.6927 133.618C16.7994 134.136 16.9213 134.654 17.0433 135.172C17.4244 136.529 17.9884 137.81 18.6897 138.999C18.8421 139.243 18.9946 139.502 19.1623 139.746C19.33 139.99 19.4976 140.218 19.6806 140.447C19.8483 140.691 20.0312 140.92 20.2294 141.133C20.3971 141.346 20.5952 141.56 20.7934 141.758C21.0221 142.017 21.266 142.261 21.5252 142.505C21.7081 142.673 21.891 142.84 22.0892 142.993C22.5313 143.374 23.0039 143.74 23.4917 144.06C23.7356 144.228 23.9795 144.38 24.2387 144.533C24.4826 144.685 24.7417 144.837 25.0009 144.959C25.2753 145.097 25.5344 145.234 25.8088 145.356C26.6016 145.737 27.4552 146.042 28.3242 146.27C28.6291 146.347 28.934 146.423 29.2541 146.484C29.5285 146.545 29.8029 146.591 30.0925 146.636C30.184 146.56 30.2907 146.499 30.3822 146.408C42.6082 137.459 50.5506 122.992 50.5506 106.665C50.5506 95.2473 46.6632 84.7439 40.1539 76.4052C48.3706 81.0242 55.1849 87.808 59.8497 95.9943C61.862 99.531 63.2492 103.388 63.9809 107.382C64.0724 107.9 64.1486 108.388 64.1944 108.815C64.3468 110.476 65.3072 116.727 63.1577 126.544C61.6638 133.313 59.0265 139.776 55.566 145.783C51.8768 152.216 48.2182 156.256 41.8155 160.951C38.3855 163.466 34.2848 164.792 30.0925 164.792C29.0712 164.792 28.0345 164.716 27.0132 164.549C26.6168 164.488 25.9918 164.396 25.2448 164.228C24.4978 164.091 23.888 163.939 23.5069 163.832L23.385 163.802L23.263 163.771C22.0892 163.466 20.9306 163.1 19.8025 162.673V220.938C19.8025 224.337 21.0068 227.63 23.1411 230.283C40.8399 252.372 61.8467 271.092 85.7348 286.108C109.577 271.122 130.523 252.448 148.191 230.465C150.417 227.676 151.667 224.231 151.667 220.663V122.245C143.008 129.258 136.682 133.099 130.919 135.477L130.279 135.737L125.172 137.81C124.867 137.734 124.562 137.642 124.273 137.566C123.831 137.429 123.373 137.291 122.946 137.124C122.078 136.804 121.224 136.438 120.401 136.026C119.989 135.828 119.577 135.599 119.181 135.371C118.846 135.173 118.495 134.959 118.16 134.73C117.977 134.639 117.809 134.517 117.641 134.395C116.376 133.526 115.218 132.55 114.15 131.483C110.309 127.596 107.809 122.398 107.367 116.605V114.821C107.367 113.48 107.443 112.138 107.626 110.812C108.358 104.76 110.812 99.0127 114.943 94.5156C116.818 92.4728 118.952 90.7044 121.407 89.2715C120.721 90.7349 120.172 92.2441 119.745 93.8448C119.09 96.2382 118.739 98.7688 118.739 101.391C118.739 107.184 120.446 112.611 123.404 117.123C135.157 112.321 143.374 106.955 148.008 98.037C150.31 93.6161 151.728 88.3111 152.262 81.7407C152.368 80.3535 152.429 78.951 152.429 77.5485C152.429 67.4567 149.533 58.0356 144.548 50.1085C144.228 49.5902 143.877 49.0719 143.542 48.5536C144.03 48.7517 144.517 48.9652 145.005 49.1786C146.453 49.8341 147.871 50.5658 149.228 51.3585C151.042 52.4256 152.78 53.63 154.426 54.9257C155.051 55.4136 155.646 55.9166 156.24 56.4349C156.835 56.9685 157.414 57.502 157.978 58.0508C165.829 65.7493 170.89 76.3289 171.424 88.0672C171.47 88.7836 171.485 89.4696 171.485 90.1861H171.5Z" fill="#1D1F22"/>
<path d="M149.243 51.3585C147.886 50.5658 146.469 49.8341 145.02 49.1786C146.469 49.8189 147.886 50.5506 149.243 51.3585Z" fill="#1D1F22"/>
<path d="M145.02 49.1786C146.469 49.8341 147.886 50.5658 149.243 51.3585C147.886 50.5506 146.469 49.8189 145.02 49.1786ZM122.901 236.228L123.724 237.646L127.2 231.594C125.797 233.164 124.364 234.703 122.901 236.228Z" fill="#1D1F22"/>
</svg>
