<svg width="644" height="501" viewBox="0 0 644 501" fill="none" xmlns="http://www.w3.org/2000/svg">
<rect y="0.0568848" width="644" height="500" rx="20" fill="#2A8BEC"/>
<path d="M336.416 231.489C337.239 231.901 338.093 232.267 338.962 232.587C338.093 232.282 337.239 231.916 336.416 231.489Z" fill="#1D1F22"/>
<path d="M346.294 231.2L341.187 233.288C340.883 233.212 340.578 233.12 340.288 233.029C340.578 233.105 340.883 233.197 341.187 233.273L346.294 231.2Z" fill="#1D1F22"/>
<path d="M349.206 246.474V312.727C349.206 315.288 348.535 317.818 347.239 320.044L344.755 324.358L343.2 327.057L339.724 333.109L338.901 331.691L334.693 324.358L332.224 320.059C330.943 317.834 330.257 315.303 330.257 312.727V245.453C332.529 246.535 334.907 247.404 337.407 248.045C340.578 248.853 343.916 248.624 346.95 247.389L349.206 246.474Z" fill="#1D1F22"/>
<path d="M273.822 263.167V312.727C273.822 315.288 273.151 317.818 271.856 320.044L269.371 324.358L264.34 333.109L259.309 324.358L256.84 320.059C255.559 317.834 254.873 315.303 254.873 312.727V275.881C261.047 274.357 266.642 271.033 270.926 266.338L273.822 263.167Z" fill="#1D1F22"/>
<path d="M312.345 164.612V335.106C312.345 337.667 311.583 340.197 310.134 342.423L307.329 346.737L301.659 355.487L295.988 346.737L293.183 342.423C291.734 340.197 290.987 337.667 290.987 335.106V164.612L301.674 155.13L312.345 164.612Z" fill="#1D1F22"/>
<path d="M343.245 144.398L329.556 156.014H312.848L312.04 155.465L301.887 148.575L291.78 155.45L290.942 156.014H274.523L260.834 144.398C261.063 144.321 261.261 144.245 261.505 144.154C268.715 141.593 280.743 138.147 294.798 137.233V107.963L291.186 104.762L301.658 95.463L312.116 104.762L308.534 107.948V137.172C322.909 138.041 335.212 141.547 342.575 144.154C342.818 144.245 343.017 144.321 343.245 144.398Z" fill="#1D1F22"/>
<path d="M359.542 144.001L359.557 144.016H359.542V144.001Z" fill="#1D1F22"/>
<path d="M387.5 185.649V322.712C387.5 326.325 386.311 329.663 384.314 332.362C384.283 332.392 384.253 332.438 384.238 332.468C361.981 361.753 333.901 386.373 301.75 404.651C269.645 386.418 241.611 361.844 219.369 332.621C219.262 332.499 219.171 332.377 219.079 332.255C217.281 329.785 216.168 326.797 216 323.55V243.944C216.015 227.236 224.156 212.418 236.687 203.256C233.653 208.668 231.93 214.888 231.93 221.519C231.93 223.943 232.159 226.306 232.601 228.593C232.632 228.76 232.662 228.913 232.693 229.081C232.799 229.599 232.921 230.117 233.043 230.635C233.424 231.992 233.988 233.273 234.69 234.462C234.842 234.706 234.995 234.965 235.162 235.209C235.33 235.453 235.498 235.681 235.681 235.91C235.848 236.154 236.031 236.383 236.229 236.596C236.397 236.809 236.595 237.023 236.793 237.221C237.022 237.48 237.266 237.724 237.525 237.968C237.708 238.136 237.891 238.303 238.089 238.456C238.531 238.837 239.004 239.203 239.492 239.523C239.736 239.691 239.98 239.843 240.239 239.996C240.483 240.148 240.742 240.3 241.001 240.422C241.275 240.56 241.534 240.697 241.809 240.819C242.602 241.2 243.455 241.505 244.324 241.733C244.629 241.81 244.934 241.886 245.254 241.947C245.528 242.008 245.803 242.054 246.093 242.099C246.184 242.023 246.291 241.962 246.382 241.871C258.608 232.922 266.551 218.455 266.551 202.128C266.551 190.71 262.663 180.207 256.154 171.868C264.371 176.487 271.185 183.271 275.85 191.457C277.862 194.994 279.249 198.851 279.981 202.845C280.072 203.363 280.149 203.851 280.194 204.278C280.347 205.939 281.307 212.19 279.158 222.007C277.664 228.776 275.026 235.239 271.566 241.246C267.877 247.679 264.218 251.719 257.816 256.414C254.386 258.929 250.285 260.255 246.093 260.255C245.071 260.255 244.035 260.179 243.013 260.012C242.617 259.951 241.992 259.859 241.245 259.691C240.498 259.554 239.888 259.402 239.507 259.295L239.385 259.265L239.263 259.234C238.089 258.929 236.931 258.563 235.803 258.136V316.401C235.803 319.8 237.007 323.093 239.141 325.746C256.84 347.835 277.847 366.555 301.735 381.571C325.577 366.585 346.523 347.911 364.191 325.928C366.417 323.139 367.667 319.694 367.667 316.126V217.708C359.008 224.721 352.682 228.562 346.919 230.94L346.279 231.2L341.172 233.273C340.867 233.197 340.562 233.105 340.273 233.029C339.831 232.892 339.373 232.754 338.946 232.587C338.078 232.267 337.224 231.901 336.401 231.489C335.989 231.291 335.577 231.062 335.181 230.834C334.846 230.635 334.495 230.422 334.16 230.193C333.977 230.102 333.809 229.98 333.641 229.858C332.376 228.989 331.218 228.013 330.15 226.946C326.309 223.059 323.809 217.861 323.367 212.068V210.284C323.367 208.943 323.443 207.601 323.626 206.275C324.358 200.223 326.812 194.476 330.943 189.979C332.818 187.936 334.952 186.167 337.407 184.734C336.721 186.198 336.172 187.707 335.745 189.308C335.09 191.701 334.739 194.232 334.739 196.854C334.739 202.647 336.446 208.074 339.404 212.586C351.157 207.784 359.374 202.418 364.008 193.5C366.31 189.079 367.728 183.774 368.262 177.204C368.368 175.816 368.429 174.414 368.429 173.011C368.429 162.92 365.533 153.499 360.548 145.571C360.228 145.053 359.877 144.535 359.542 144.017C360.03 144.215 360.517 144.428 361.005 144.642C362.453 145.297 363.871 146.029 365.228 146.822C367.042 147.889 368.78 149.093 370.426 150.389C371.051 150.877 371.646 151.38 372.24 151.898C372.835 152.431 373.414 152.965 373.978 153.514C381.829 161.212 386.89 171.792 387.424 183.53C387.47 184.247 387.485 184.933 387.485 185.649H387.5Z" fill="#1D1F22"/>
<path d="M365.243 146.822C363.886 146.029 362.469 145.297 361.02 144.642C362.469 145.282 363.886 146.014 365.243 146.822Z" fill="#1D1F22"/>
<path d="M361.02 144.642C362.469 145.297 363.886 146.029 365.243 146.822C363.886 146.014 362.469 145.282 361.02 144.642ZM338.901 331.691L339.724 333.109L343.2 327.057C341.797 328.627 340.364 330.166 338.901 331.691Z" fill="#1D1F22"/>
</svg>
