<svg width="20" height="21" viewBox="0 0 20 21" fill="none" xmlns="http://www.w3.org/2000/svg">
<path fill-rule="evenodd" clip-rule="evenodd" d="M20 10.0566C20 15.5795 15.5228 20.0566 10 20.0566C4.47715 20.0566 0 15.5795 0 10.0566C0 4.53379 4.47715 0.0566406 10 0.0566406C15.5228 0.0566406 20 4.53379 20 10.0566ZM6.69646 9.14061C5.69472 9.57798 4.66545 10.0274 3.72427 10.5458L3.7242 10.5459C3.23275 10.9057 3.88599 11.1602 4.49877 11.3989C4.59619 11.4369 4.69259 11.4744 4.7832 11.512C4.85861 11.5351 4.93529 11.5596 5.01299 11.5843C5.69452 11.8014 6.45447 12.0436 7.11612 11.6793C8.20303 11.055 9.22875 10.3331 10.2537 9.61183C10.5895 9.37551 10.9252 9.13926 11.263 8.90651C11.2788 8.89639 11.2966 8.88481 11.3161 8.87216C11.6039 8.68564 12.251 8.26619 12.0116 8.84417C11.4456 9.46317 10.8393 10.0111 10.2298 10.5621C9.81895 10.9333 9.40664 11.306 9.00414 11.7027C8.65356 11.9875 8.28955 12.5603 8.6821 12.9592C9.58623 13.5921 10.5045 14.2097 11.4222 14.827C11.7209 15.0278 12.0194 15.2286 12.3174 15.4299C12.8225 15.8332 13.6119 15.507 13.7229 14.8768C13.7723 14.5869 13.8219 14.2971 13.8715 14.0072C14.1455 12.4052 14.4196 10.8027 14.6617 9.19559C14.6946 8.9435 14.7319 8.6914 14.7692 8.43918C14.8597 7.82789 14.9502 7.21585 14.9785 6.60126C14.9056 5.98795 14.162 6.1228 13.7481 6.26071C11.6209 7.07012 9.51502 7.93954 7.41744 8.82429C7.17982 8.92956 6.93895 9.03473 6.69646 9.14061Z" fill="#737373"/>
</svg>
