<svg width="85" height="38" viewBox="0 0 85 38" fill="none" xmlns="http://www.w3.org/2000/svg">
<path fill-rule="evenodd" clip-rule="evenodd" d="M83.7691 19.5507C80.5595 15.167 66.6057 12.1995 62.698 12.1995H61.9182C60.9753 5.53368 50.5848 0.275024 43.694 0.275024H25.6784C18.7242 0.275024 10.3102 5.70506 9.56676 12.2536C4.48031 12.7136 0.5 16.971 0.5 22.1305C0.5 27.768 4.67071 31.7548 10.7182 32.0344C12.1599 35.1283 15.297 37.275 18.9327 37.275C22.5685 37.275 25.6965 35.1373 27.1381 32.0615H57.8563C59.2979 35.1373 62.435 37.275 66.0617 37.275C69.6884 37.275 72.8255 35.1373 74.2672 32.0615H78.9547C80.4869 32.0615 81.584 31.0512 82.2278 29.0578L84.3585 22.4371C84.5761 21.7787 84.6486 20.7414 83.7782 19.5598L83.7691 19.5507ZM82.1824 20.7053C82.5904 21.2645 82.5451 21.6163 82.4726 21.8328L82.128 22.9062C81.8742 22.9513 81.6294 22.9783 81.3664 22.9783C79.8613 22.9783 78.4832 22.2207 77.6853 20.9398C77.0416 19.9115 76.8693 18.7119 77.1685 17.5844C79.4896 18.5315 81.3755 19.6049 82.1824 20.7053ZM43.694 2.23236C49.4968 2.23236 58.8899 6.78746 59.9326 12.1995H36.7308V2.23236H43.694ZM25.6693 2.23236H34.7633V12.1995H11.5433C12.3684 6.81452 19.7578 2.23236 25.6693 2.23236ZM18.9327 35.3177C15.0249 35.3177 11.8425 32.1517 11.8425 28.2641C11.8425 24.3764 15.0249 21.2104 18.9327 21.2104C22.8405 21.2104 26.0229 24.3764 26.0229 28.2641C26.0229 32.1517 22.8405 35.3177 18.9327 35.3177ZM66.0617 35.3177C62.154 35.3177 58.9715 32.1517 58.9715 28.2641C58.9715 24.3764 62.154 21.2104 66.0617 21.2104C69.9695 21.2104 73.1519 24.3764 73.1519 28.2641C73.1519 32.1517 69.9695 35.3177 66.0617 35.3177ZM80.3419 28.4535C79.816 30.0951 79.1813 30.0951 78.9456 30.0951H74.929C75.056 29.4998 75.1194 28.8864 75.1194 28.255C75.1194 23.285 71.0575 19.2441 66.0617 19.2441C61.0659 19.2441 57.004 23.285 57.004 28.255C57.004 28.8864 57.0675 29.4998 57.1944 30.0951H27.8C27.9269 29.4998 27.9904 28.8864 27.9904 28.255C27.9904 23.285 23.9285 19.2441 18.9327 19.2441C13.9369 19.2441 9.87503 23.285 9.87503 28.255C9.87503 28.8594 9.9385 29.4457 10.0473 30.0139C6.65633 29.6351 3.51923 27.7499 2.68509 24.1058H6.76513C7.30914 24.1058 7.75341 23.6639 7.75341 23.1227C7.75341 22.5815 7.30914 22.1395 6.76513 22.1395H2.46749C2.46749 22.1395 2.46749 22.1305 2.46749 22.1214C2.46749 21.2014 2.63069 20.3265 2.92082 19.5056H6.76513C7.30914 19.5056 7.75341 19.0637 7.75341 18.5225C7.75341 17.9813 7.30914 17.5393 6.76513 17.5393H3.92724C5.37792 15.4917 7.77154 14.1478 10.4734 14.1478H62.698C65.146 14.1478 70.7039 15.2482 75.3189 16.8718C74.8112 18.5676 75.0469 20.4076 76.008 21.9591C77.1685 23.8172 79.1632 24.9267 81.3664 24.9267C81.3664 24.9267 81.439 24.9267 81.4752 24.9267L80.3419 28.4535Z" fill="white"/>
<path fill-rule="evenodd" clip-rule="evenodd" d="M18.9327 24.4576C16.8292 24.4576 15.1156 26.1624 15.1156 28.255C15.1156 30.3477 16.8292 32.0524 18.9327 32.0524C21.0362 32.0524 22.7498 30.3477 22.7498 28.255C22.7498 26.1624 21.0362 24.4576 18.9327 24.4576ZM18.9327 30.1041C17.9082 30.1041 17.0831 29.2743 17.0831 28.2641C17.0831 27.2538 17.9172 26.424 18.9327 26.424C19.9482 26.424 20.7823 27.2448 20.7823 28.2641C20.7823 29.2833 19.9482 30.1041 18.9327 30.1041Z" fill="white"/>
<path fill-rule="evenodd" clip-rule="evenodd" d="M66.0617 24.4576C63.9582 24.4576 62.2446 26.1624 62.2446 28.255C62.2446 30.3477 63.9582 32.0524 66.0617 32.0524C68.1652 32.0524 69.8788 30.3477 69.8788 28.255C69.8788 26.1624 68.1652 24.4576 66.0617 24.4576ZM66.0617 30.1041C65.0463 30.1041 64.2121 29.2743 64.2121 28.2641C64.2121 27.2538 65.0463 26.424 66.0617 26.424C67.0772 26.424 67.9114 27.2448 67.9114 28.2641C67.9114 29.2833 67.0772 30.1041 66.0617 30.1041Z" fill="white"/>
<path fill-rule="evenodd" clip-rule="evenodd" d="M48.0552 25.3506H40.0673L48.2456 19.0637C48.309 19.0186 48.3453 18.9554 48.3906 18.8923C48.4178 18.8652 48.436 18.8382 48.4632 18.8111C48.4904 18.775 48.5176 18.748 48.5357 18.7119C48.6536 18.5405 48.7352 18.3511 48.7352 18.1256C48.7352 17.5393 48.2546 17.0612 47.6653 17.0612H36.5494C35.9601 17.0612 35.4796 17.5393 35.4796 18.1256C35.4796 18.7119 35.9601 19.1899 36.5494 19.1899H44.5917L36.2865 25.5671C36.2865 25.5671 36.2593 25.6032 36.2412 25.6212C36.1868 25.6663 36.1414 25.7294 36.0961 25.7836C36.0598 25.8377 36.0145 25.8828 35.9873 25.9459C35.9601 26 35.942 26.0632 35.9238 26.1263C35.9057 26.1985 35.8876 26.2706 35.8785 26.3428C35.8785 26.3699 35.8694 26.3879 35.8694 26.4059C35.8694 26.451 35.8876 26.4871 35.8966 26.5322C35.8966 26.6044 35.9148 26.6765 35.942 26.7487C35.9692 26.8209 35.9964 26.884 36.0417 26.9381C36.0598 26.9742 36.0689 27.0193 36.0961 27.0554C36.1142 27.0734 36.1324 27.0824 36.1505 27.1005C36.1958 27.1546 36.2593 27.1997 36.3137 27.2448C36.3681 27.2809 36.4134 27.326 36.4769 27.353C36.5313 27.3801 36.5948 27.3981 36.6673 27.4162C36.7398 27.4342 36.8124 27.4523 36.8849 27.4613C36.903 27.4613 36.9302 27.4703 36.9484 27.4703H48.0642C48.6536 27.4703 49.1341 26.9922 49.1341 26.4059C49.1341 25.8196 48.6536 25.3416 48.0642 25.3416L48.0552 25.3506Z" fill="white"/>
</svg>
