<svg width="69" height="69" viewBox="0 0 69 69" fill="none" xmlns="http://www.w3.org/2000/svg">
<path d="M40.256 45.9999H10.3681C9.72991 45.9999 9.21603 45.4859 9.21603 44.8475V37.9491C9.21603 37.3107 9.72991 36.7966 10.3681 36.7966H20.712V32.195H10.3681C9.72991 32.195 9.21603 31.6809 9.21603 31.0425V24.1442C9.21603 23.5057 9.72991 22.9917 10.3681 22.9917H40.256C40.43 22.9917 40.6041 23.0331 40.7615 23.1078L49.7296 27.5933C54.3545 27.6348 58.9048 28.7375 63.0407 30.8103L68.3784 33.505C68.7596 33.704 69 34.0937 69 34.5248C69 34.956 68.7596 35.354 68.3784 35.5447L62.9744 38.2393C58.855 40.279 54.3296 41.3568 49.7296 41.39L40.7864 45.8756C40.6206 45.9585 40.4383 45.9916 40.256 45.9916V45.9999ZM11.5202 43.695H39.9824L48.9256 39.2094C49.0914 39.1265 49.2737 39.0933 49.456 39.0933C53.7826 39.0933 58.0594 38.1067 61.9383 36.1914L65.2702 34.4917L62.0958 32.8832C58.1754 30.9098 53.8406 29.8817 49.4478 29.89C49.2737 29.89 49.0996 29.8486 48.9422 29.7739L39.9741 25.2884H11.5202V29.89H21.8641C22.1707 29.89 22.4608 30.0144 22.6763 30.2299C22.8918 30.4455 23.0162 30.7357 23.0162 31.0425V37.9408C23.0162 38.2476 22.8918 38.5378 22.6763 38.7534C22.4608 38.9689 22.1707 39.0933 21.8641 39.0933H11.5202V43.695Z" fill="white"/>
<path d="M10.3681 45.9999H1.16802C0.529821 45.9999 0.0159419 45.4859 0.0159419 44.8475C0.0159419 44.209 0.529821 43.695 1.16802 43.695H10.3681C11.0063 43.695 11.5202 44.209 11.5202 44.8475C11.5202 45.4859 11.0063 45.9999 10.3681 45.9999Z" fill="white"/>
<path d="M10.3681 25.2966H1.16802C0.529821 25.2966 0.0159419 24.7826 0.0159419 24.1442C0.0159419 23.5057 0.529821 22.9917 1.16802 22.9917H10.3681C11.0063 22.9917 11.5202 23.5057 11.5202 24.1442C11.5202 24.7826 11.0063 25.2966 10.3681 25.2966Z" fill="white"/>
<path d="M21.8641 39.1016H3.47219C2.83399 39.1016 2.32011 38.5875 2.32011 37.9491V34.5C2.32011 33.8615 2.83399 33.3475 3.47219 33.3475H21.8641C22.1707 33.3475 22.4608 33.4718 22.6763 33.6874C22.8918 33.903 23.0162 34.1932 23.0162 34.5V37.9491C23.0162 38.2559 22.8918 38.5461 22.6763 38.7617C22.4608 38.9772 22.1707 39.1016 21.8641 39.1016ZM4.61598 36.7966H20.712V35.6441H4.61598V36.7966Z" fill="white"/>
<path d="M21.8641 35.6524H3.47219C2.83399 35.6524 2.32011 35.1384 2.32011 34.5V31.0508C2.32011 30.4124 2.83399 29.8983 3.47219 29.8983H21.8641C22.1707 29.8983 22.4608 30.0227 22.6763 30.2382C22.8918 30.4538 23.0162 30.744 23.0162 31.0508V34.5C23.0162 34.8067 22.8918 35.0969 22.6763 35.3125C22.4608 35.5281 22.1707 35.6524 21.8641 35.6524ZM4.61598 33.3475H20.712V32.195H4.61598V33.3475Z" fill="white"/>
<path d="M37.9518 25.2966H17.264C16.7087 25.3049 16.228 24.9235 16.1119 24.3763L11.5202 1.37635C11.4539 1.03641 11.5368 0.679884 11.7606 0.406272C11.9843 0.149243 12.3159 0 12.664 0C14.9847 0 17.2806 0.530641 19.3776 1.54218C21.4745 2.53713 23.3145 4.00468 24.7567 5.82047L38.8469 23.4394C39.1204 23.7876 39.1702 24.2519 38.9795 24.6499C38.7889 25.0479 38.3911 25.2966 37.9518 25.3049V25.2966ZM18.2089 23H35.5647L23.0079 7.24657C21.7729 5.6961 20.1981 4.45241 18.4078 3.61499C17.0485 2.93511 15.5898 2.48738 14.0896 2.30497L18.2089 23.0083V23Z" fill="white"/>
<path d="M12.664 68.9999C12.3159 68.9999 11.9843 68.8507 11.7606 68.5853C11.5368 68.32 11.4456 67.9635 11.5202 67.6153L16.1202 44.6153C16.228 44.0681 16.717 43.6867 17.2723 43.695H37.9601C38.3994 43.695 38.7972 43.952 38.9878 44.35C39.1785 44.748 39.1287 45.2206 38.8552 45.5605L24.765 63.1794C21.8392 66.869 17.3801 69.0165 12.6723 68.9999H12.664ZM18.2089 45.9999L14.0896 66.6949C17.6121 66.3218 20.828 64.5392 23.0079 61.7533L35.5647 45.9999H18.2089Z" fill="white"/>
<path d="M14.9682 25.2966H5.76807C5.37851 25.2966 5.02211 25.1142 4.79833 24.7909L0.206574 17.8925C-0.0337882 17.536 -0.0586533 17.08 0.148556 16.7069C0.347477 16.3338 0.745318 16.0933 1.17631 16.1016H5.77636C6.02501 16.1016 6.26537 16.1845 6.46429 16.3338L15.6644 23.2321C16.0622 23.5306 16.2197 24.0447 16.0622 24.5173C15.9047 24.9899 15.4655 25.3049 14.9682 25.3049V25.2966ZM6.38969 23H11.5202L5.37851 18.3983H3.30642L6.38969 23Z" fill="white"/>
<path d="M5.76807 52.8983H1.16802C0.73703 52.8983 0.347477 52.6744 0.140267 52.293C-0.0669417 51.9116 -0.0420766 51.4556 0.198286 51.1074L4.79833 44.209C5.01383 43.8857 5.37851 43.695 5.76807 43.7033H14.9682C15.4655 43.7033 15.9047 44.0183 16.0622 44.4909C16.2197 44.9635 16.0622 45.4776 15.6644 45.7761L6.46429 52.6744C6.26537 52.8236 6.02501 52.9066 5.77636 52.9066L5.76807 52.8983ZM3.30642 50.6016H5.37851L11.5202 45.9999H6.38969L3.30642 50.6016Z" fill="white"/>
<path d="M36.808 41.3983C36.1698 41.3983 35.6559 40.8842 35.6559 40.2458C35.6559 39.6074 36.1698 39.0933 36.808 39.0933C38.4491 39.0933 39.9659 38.2144 40.7864 36.7966C41.607 35.3705 41.607 33.6211 40.7864 32.195C39.9659 30.7689 38.4491 29.8983 36.808 29.8983C36.1698 29.8983 35.6559 29.3842 35.6559 28.7458C35.6559 28.1074 36.1698 27.5933 36.808 27.5933C39.2696 27.5933 41.5489 28.9116 42.7839 31.0425C44.0189 33.1733 44.0189 35.81 42.7839 37.9408C41.5489 40.0717 39.2779 41.39 36.808 41.39V41.3983Z" fill="white"/>
</svg>
