<svg width="55" height="54" viewBox="0 0 55 54" fill="none" xmlns="http://www.w3.org/2000/svg">
<path d="M12.4224 21.4206V13.0666C12.4224 13.0231 12.4224 12.9708 12.4135 12.9272C11.8192 9.40797 10.8612 5.92354 9.58391 2.57848L8.82106 0.574931C8.68801 0.226488 8.35981 0 7.98725 0C7.6147 0 7.2865 0.226488 7.15344 0.56622L6.39059 2.56977C5.11327 5.91482 4.16414 9.39926 3.56096 12.9185C3.56096 12.9621 3.55209 13.0144 3.55209 13.0579V21.4118L0.261196 24.6437C0.10153 24.8092 0.00395685 25.0269 0.00395685 25.2621V47.911C0.00395685 48.8953 0.571658 49.749 1.3966 50.1933L0.0926602 52.7456C-0.0403948 53.0156 -0.0315245 53.338 0.128141 53.5906C0.287807 53.8519 0.571658 54 0.882119 54H15.0746C15.3851 54 15.669 53.8432 15.8286 53.5906C15.9883 53.3292 16.006 53.0156 15.8641 52.7456L14.5602 50.1933C15.3851 49.749 15.9528 48.8953 15.9528 47.911V25.2621C15.9528 25.0269 15.8641 24.8092 15.6956 24.6437L12.4047 21.4118L12.4224 21.4206ZM5.32615 13.9377H10.6484V20.9066H5.32615V13.9377ZM7.98725 3.35377C9.06943 6.21971 9.89437 9.19019 10.4621 12.1955H5.51243C6.08013 9.19019 6.90507 6.21971 7.98725 3.35377ZM4.80281 22.6488H11.1628L14.1876 25.6193V26.1332H1.77802V25.6193L4.80281 22.6488ZM13.3095 48.7821H12.4224V31.3599H10.6484V48.7821H2.66506C2.17719 48.7821 1.77802 48.3901 1.77802 47.911V27.8755H3.55209V45.2976H5.32615V27.8755H14.1965V47.911C14.1965 48.3901 13.7973 48.7821 13.3095 48.7821ZM2.32798 52.2665L3.21502 50.5243H12.7595L13.6465 52.2665H2.32798Z" fill="white"/>
<path d="M31.9371 21.4206V13.0666C31.9371 13.0231 31.9371 12.9708 31.9283 12.9272C31.334 9.40797 30.376 5.92354 29.0986 2.57848L28.3358 0.574931C28.2027 0.226488 27.8745 0 27.502 0C27.1294 0 26.8012 0.226488 26.6682 0.56622L25.9053 2.56977C24.628 5.91482 23.6789 9.39926 23.0757 12.9185C23.0757 12.9621 23.0668 13.0144 23.0668 13.0579V21.4118L19.7759 24.6437C19.6074 24.8092 19.5187 25.0269 19.5187 25.2621V47.911C19.5187 48.8953 20.0864 49.749 20.9113 50.1933L19.6074 52.7456C19.4743 53.0156 19.4832 53.338 19.6429 53.5906C19.8025 53.8519 20.0864 54 20.3968 54H34.5894C34.8998 54 35.1837 53.8432 35.3433 53.5906C35.503 53.3292 35.5208 53.0156 35.3788 52.7456L34.0749 50.1933C34.8998 49.749 35.4675 48.8953 35.4675 47.911V25.2621C35.4675 25.0269 35.3788 24.8092 35.2103 24.6437L31.9194 21.4118L31.9371 21.4206ZM24.8409 13.9377H30.1631V20.9066H24.8409V13.9377ZM27.502 3.35377C28.5842 6.21971 29.4091 9.19019 29.9768 12.1955H25.0272C25.5949 9.19019 26.4198 6.21971 27.502 3.35377ZM30.6776 22.6488L33.7023 25.6193V26.1332H21.2839V25.6193L24.3087 22.6488H30.6776ZM32.8242 48.7821H31.9371V31.3599H30.1631V48.7821H22.1798C21.6919 48.7821 21.2927 48.3901 21.2927 47.911V27.8755H23.0668V45.2976H24.8409V27.8755H33.7112V47.911C33.7112 48.3901 33.312 48.7821 32.8242 48.7821ZM21.8427 52.2665L22.7297 50.5243H32.2742L33.1613 52.2665H21.8427Z" fill="white"/>
<path d="M55 47.911V25.2621C55 25.0269 54.9113 24.8092 54.7428 24.6437L51.4519 21.4118V13.0579C51.4519 13.0144 51.4519 12.9621 51.443 12.9185C50.8487 9.39926 49.8907 5.91482 48.6134 2.56977L47.8505 0.56622C47.7175 0.226488 47.3893 0 47.0167 0C46.6441 0 46.3159 0.226488 46.1829 0.56622L45.42 2.56977C44.1427 5.91482 43.1936 9.39926 42.5904 12.9185C42.5904 12.9621 42.5815 13.0144 42.5815 13.0579V21.4118L39.2906 24.6437C39.1221 24.8092 39.0334 25.0269 39.0334 25.2621V47.911C39.0334 48.8953 39.6011 49.749 40.426 50.1933L39.1221 52.7456C38.9891 53.0156 38.9979 53.338 39.1576 53.5906C39.3173 53.8519 39.6011 54 39.9116 54H54.1041C54.4146 54 54.6984 53.8432 54.8581 53.5906C55.0177 53.3292 55.0355 53.0156 54.8936 52.7456L53.5896 50.1933C54.4146 49.749 54.9823 48.8953 54.9823 47.911H55ZM44.3556 13.9377H49.6778V20.9066H44.3556V13.9377ZM47.0167 3.35377C48.0989 6.21971 48.9238 9.19019 49.4915 12.1955H44.5419C45.1096 9.19019 45.9345 6.21971 47.0167 3.35377ZM50.1923 22.6488L53.2171 25.6193V26.1332H40.7986V25.6193L43.8234 22.6488H50.1923ZM52.3389 48.7821H51.4519V31.3599H49.6778V48.7821H41.6945C41.2066 48.7821 40.8075 48.3901 40.8075 47.911V27.8755H42.5815V45.2976H44.3556V27.8755H53.2259V47.911C53.2259 48.3901 52.8268 48.7821 52.3389 48.7821ZM41.3574 52.2665L42.2445 50.5243H51.7889L52.676 52.2665H41.3574Z" fill="white"/>
</svg>
