<svg width="73" height="77" viewBox="0 0 73 77" fill="none" xmlns="http://www.w3.org/2000/svg">
<path d="M19.2872 1C15.6472 1 12.5272 3.26 11.2472 6.45C10.6872 6.23 10.1172 6.08 9.53719 6.01C6.91719 5.69 4.21719 6.93 2.81719 9.35C1.51719 11.59 1.65719 14.27 2.92719 16.32C0.747192 17.89 0.0871925 20.94 1.45719 23.35C2.68719 25.51 5.18719 26.5 7.44719 25.86C7.61719 27.4 8.49719 28.84 9.93719 29.67C11.8972 30.8 14.3072 30.46 15.8772 29V30.99H13.4572C13.0572 30.99 12.7172 31.29 12.6772 31.69L12.1872 36.29C12.1872 36.29 12.1872 36.31 12.1872 36.33L8.09719 74.7H3.27719C2.84719 74.7 2.49719 75.05 2.49719 75.48C2.49719 75.91 2.84719 76.26 3.27719 76.26H8.64719C8.74719 76.28 8.84719 76.28 8.93719 76.26H71.4772C71.9072 76.26 72.2572 75.91 72.2572 75.48C72.2572 75.05 71.9072 74.7 71.4772 74.7H66.1372V50.03H67.0972C68.4872 50.03 69.6272 48.89 69.6272 47.5C69.6272 46.11 68.4872 44.97 67.0972 44.97H41.2072L40.4572 37.81C40.4172 37.41 40.0772 37.11 39.6772 37.11H30.9372C30.5472 37.11 30.2072 37.4 30.1572 37.79L28.1472 53.09L26.3772 36.39C26.3772 36.33 26.3772 36.27 26.3672 36.21L25.8872 31.7C25.8472 31.3 25.5072 31 25.1072 31H22.6872V29.01C24.2572 30.47 26.6772 30.8 28.6272 29.68C30.0672 28.85 30.9472 27.41 31.1172 25.87C33.3772 26.51 35.8772 25.52 37.1072 23.36C38.4772 20.95 37.8072 17.91 35.6372 16.33C36.9172 14.27 37.0472 11.59 35.7472 9.36C34.3372 6.93 31.6472 5.7 29.0272 6.02C28.4472 6.09 27.8772 6.24 27.3172 6.46C26.0372 3.27 22.9172 1.01 19.2772 1.01L19.2872 1ZM19.2872 2.57C23.2072 2.57 26.3772 5.73 26.3772 9.66C26.3772 10.64 26.1772 11.57 25.8172 12.42C25.7272 12.61 25.7172 12.83 25.7972 13.03C25.8772 13.23 26.0272 13.39 26.2272 13.47C26.4272 13.55 26.6472 13.55 26.8372 13.47C27.0372 13.39 27.1872 13.23 27.2672 13.03C27.7072 11.99 27.9472 10.85 27.9472 9.66C27.9472 9.08 27.8872 8.52 27.7772 7.97C30.1872 6.91 33.0472 7.81 34.3972 10.15C35.8472 12.65 34.9972 15.82 32.4972 17.26C32.1172 17.48 31.9872 17.96 32.2072 18.33C32.4272 18.71 32.9072 18.84 33.2772 18.62C33.7972 18.32 34.2572 17.97 34.6572 17.56C36.2372 18.65 36.7372 20.83 35.7472 22.58C34.7672 24.31 32.7172 24.96 31.0172 24.15C30.9072 23.69 30.7372 23.24 30.4872 22.81C30.1372 22.21 29.6872 21.71 29.1672 21.32C29.0172 21.21 28.8372 21.15 28.6572 21.16C28.3272 21.17 28.0372 21.4 27.9372 21.72C27.8372 22.04 27.9572 22.38 28.2272 22.58C28.5872 22.85 28.8972 23.19 29.1372 23.6C29.3372 23.94 29.4672 24.3 29.5372 24.67C29.5372 24.75 29.5472 24.84 29.5772 24.92C29.7372 26.25 29.1072 27.6 27.8572 28.32C26.1872 29.28 24.0872 28.72 23.1272 27.07C22.8972 26.67 22.7572 26.24 22.6972 25.81V25.38C22.6972 24.35 23.5072 23.54 24.5372 23.54C24.9672 23.54 25.3072 23.19 25.3072 22.76C25.3072 22.33 24.9572 21.98 24.5372 21.98C22.6672 21.98 21.1272 23.51 21.1272 25.39V25.79C21.1272 25.79 21.1272 25.88 21.1272 25.92V31.02H17.4472V25.92C17.4472 25.92 17.4472 25.83 17.4472 25.79V25.39C17.4472 23.52 15.9172 21.98 14.0372 21.98C13.8272 21.98 13.6272 22.06 13.4772 22.21C13.3272 22.36 13.2472 22.56 13.2472 22.77C13.2472 22.98 13.3272 23.18 13.4772 23.33C13.6272 23.48 13.8272 23.56 14.0372 23.56C15.0672 23.56 15.8772 24.37 15.8772 25.4V25.83C15.8172 26.26 15.6772 26.69 15.4472 27.09C14.4872 28.74 12.3872 29.3 10.7172 28.34C9.46719 27.62 8.83719 26.27 8.99719 24.94C9.02719 24.86 9.03719 24.78 9.03719 24.69C9.10719 24.32 9.23719 23.96 9.43719 23.62C9.67719 23.21 9.98719 22.86 10.3472 22.6C10.6172 22.4 10.7372 22.05 10.6272 21.73C10.5172 21.41 10.2272 21.19 9.88719 21.19C9.70719 21.19 9.53719 21.24 9.39719 21.35C8.87719 21.74 8.41719 22.25 8.07719 22.84C7.82719 23.27 7.65719 23.72 7.54719 24.18C5.84719 24.98 3.79719 24.34 2.81719 22.61C1.82719 20.86 2.32719 18.68 3.90719 17.59C4.31719 17.99 4.77719 18.35 5.28719 18.65C5.46719 18.75 5.67719 18.78 5.88719 18.73C6.08719 18.68 6.25719 18.54 6.36719 18.36C6.46719 18.18 6.49719 17.97 6.44719 17.76C6.39719 17.55 6.25719 17.39 6.07719 17.28C3.57719 15.84 2.72719 12.67 4.17719 10.17C5.52719 7.84 8.39719 6.94 10.7972 7.99C10.6872 8.54 10.6272 9.1 10.6272 9.68C10.6272 10.87 10.8672 12.01 11.3072 13.05C11.3872 13.25 11.5372 13.41 11.7372 13.49C11.9372 13.57 12.1572 13.57 12.3472 13.49C12.5472 13.41 12.6972 13.25 12.7772 13.05C12.8572 12.85 12.8472 12.63 12.7572 12.44C12.3972 11.59 12.1972 10.66 12.1972 9.68C12.1972 5.76 15.3572 2.59 19.2872 2.59V2.57ZM19.2772 21.16C18.8472 21.16 18.4972 21.52 18.5072 21.96V28.89C18.5072 29.1 18.5772 29.31 18.7272 29.46C18.8772 29.61 19.0772 29.7 19.2872 29.7C19.4972 29.7 19.7072 29.61 19.8472 29.46C19.9972 29.31 20.0772 29.1 20.0672 28.89V21.96C20.0672 21.75 19.9872 21.54 19.8372 21.39C19.6872 21.24 19.4872 21.16 19.2672 21.16H19.2772ZM42.1872 24.1C40.3172 24.1 38.7772 25.63 38.7772 27.51C38.7772 29.39 40.3172 30.92 42.1872 30.92C44.0572 30.92 45.5972 29.39 45.5972 27.51C45.5972 25.63 44.0672 24.1 42.1872 24.1ZM42.1872 25.67C43.2072 25.67 44.0272 26.48 44.0272 27.51C44.0272 28.54 43.2172 29.35 42.1872 29.35C41.1572 29.35 40.3472 28.54 40.3472 27.51C40.3472 26.48 41.1572 25.67 42.1872 25.67ZM35.3172 30.39C33.9272 30.39 32.7872 31.53 32.7872 32.92C32.7872 34.31 33.9272 35.45 35.3172 35.45C36.7072 35.45 37.8472 34.31 37.8472 32.92C37.8472 31.53 36.7072 30.39 35.3172 30.39ZM35.3172 31.96C35.8572 31.96 36.2872 32.38 36.2872 32.92C36.2872 33.46 35.8672 33.88 35.3172 33.88C34.7672 33.88 34.3572 33.46 34.3572 32.92C34.3572 32.38 34.7772 31.96 35.3172 31.96ZM14.1672 32.57H16.4672C16.5972 32.6 16.7372 32.6 16.8672 32.57H21.7172C21.8472 32.6 21.9872 32.6 22.1172 32.57H24.4172L24.7372 35.6H13.8472L14.1672 32.57ZM13.6772 37.17H24.8972L27.1972 58.97H19.5672C18.1772 58.97 17.0372 60.11 17.0372 61.5C17.0372 62.89 18.1772 64.03 19.5672 64.03H20.5272V74.7H9.65719L13.6572 37.16L13.6772 37.17ZM31.6372 38.67H38.9872L39.1872 40.6H31.3872L31.6372 38.67ZM31.1772 42.17H39.3572L39.6472 44.97H37.3872C35.9972 44.97 34.8572 46.11 34.8572 47.5C34.8572 48.89 35.9972 50.03 37.3872 50.03H38.3472V58.96H28.9672L31.1772 42.17ZM67.1172 46.54C67.6672 46.54 68.0772 46.96 68.0772 47.5C68.0772 48.04 67.6572 48.46 67.1172 48.46H65.4472C65.4472 48.46 65.3772 48.46 65.3472 48.46C65.3272 48.46 65.2972 48.46 65.2772 48.46H39.2072C39.2072 48.46 39.1372 48.46 39.1072 48.46C39.0872 48.46 39.0572 48.46 39.0372 48.46H37.3772C36.8272 48.46 36.4072 48.04 36.4072 47.5C36.4072 46.96 36.8272 46.54 37.3772 46.54H67.1172ZM39.9172 50.03H64.5872V74.7H48.3472V64.03H49.3072C50.6972 64.03 51.8372 62.89 51.8372 61.5C51.8372 60.11 50.6972 58.97 49.3072 58.97H39.9172V50.03ZM56.2472 52.84C55.8172 52.84 55.4672 53.19 55.4672 53.62V57.12C55.4672 57.55 55.8172 57.9 56.2472 57.9H59.7472C59.9572 57.9 60.1572 57.82 60.3072 57.67C60.4572 57.52 60.5372 57.32 60.5372 57.11V53.61C60.5372 53.4 60.4572 53.2 60.3072 53.06C60.1572 52.91 59.9572 52.83 59.7472 52.83H56.2472V52.84ZM57.0272 54.41H58.9572V56.34H57.0272V54.41ZM56.2472 59.84C55.8172 59.84 55.4672 60.19 55.4672 60.62V64.12C55.4672 64.55 55.8172 64.9 56.2472 64.9H59.7472C59.9572 64.9 60.1572 64.82 60.3072 64.67C60.4572 64.52 60.5372 64.32 60.5372 64.11V60.61C60.5372 60.4 60.4572 60.2 60.3072 60.06C60.1572 59.91 59.9572 59.83 59.7472 59.83H56.2472V59.84ZM19.5772 60.53H27.9072C27.9172 60.53 27.9272 60.53 27.9472 60.53C27.9572 60.53 27.9672 60.53 27.9872 60.53C28.0072 60.53 28.0172 60.53 28.0372 60.53H28.0572C28.0772 60.53 28.0972 60.53 28.1172 60.53C28.1572 60.53 28.1872 60.53 28.2272 60.52H49.2972C49.8472 60.52 50.2672 60.94 50.2672 61.48C50.2672 62.02 49.8472 62.45 49.2972 62.45H47.6872C47.6872 62.45 47.5872 62.44 47.5372 62.44C47.4972 62.44 47.4572 62.44 47.4172 62.45H21.4572C21.4072 62.45 21.3572 62.44 21.3072 62.44C21.2672 62.44 21.2272 62.44 21.1872 62.45H19.5772C19.0272 62.45 18.6172 62.03 18.6172 61.48C18.6172 60.93 19.0372 60.52 19.5772 60.52V60.53ZM57.0272 61.41H58.9572V63.34H57.0272V61.41ZM22.1072 64.03H46.7772V74.7H22.1072V64.03ZM25.6972 66.83C25.2672 66.83 24.9172 67.18 24.9172 67.61V71.11C24.9172 71.54 25.2672 71.89 25.6972 71.89H29.1972C29.6272 71.89 29.9772 71.54 29.9772 71.11V67.61C29.9772 67.18 29.6272 66.83 29.1972 66.83H25.6972ZM32.6872 66.83C32.2572 66.83 31.9072 67.18 31.9072 67.61V71.11C31.9072 71.54 32.2572 71.89 32.6872 71.89H36.1872C36.6172 71.89 36.9672 71.54 36.9672 71.11V67.61C36.9672 67.18 36.6172 66.83 36.1872 66.83H32.6872ZM39.6872 66.83C39.2572 66.83 38.9072 67.18 38.9072 67.61V71.11C38.9072 71.54 39.2572 71.89 39.6872 71.89H43.1872C43.3972 71.89 43.5972 71.81 43.7472 71.66C43.8972 71.51 43.9772 71.31 43.9772 71.11V67.61C43.9772 67.4 43.8972 67.2 43.7472 67.06C43.5972 66.91 43.3972 66.83 43.1872 66.83H39.6872ZM56.2472 66.83C55.8172 66.83 55.4672 67.18 55.4672 67.61V71.11C55.4672 71.54 55.8172 71.89 56.2472 71.89H59.7472C59.9572 71.89 60.1572 71.81 60.3072 71.66C60.4572 71.51 60.5372 71.31 60.5372 71.11V67.61C60.5372 67.4 60.4572 67.2 60.3072 67.06C60.1572 66.91 59.9572 66.83 59.7472 66.83H56.2472ZM26.4772 68.4H28.4072V70.33H26.4772V68.4ZM33.4772 68.4H35.4072V70.33H33.4772V68.4ZM40.4672 68.4H42.3972V70.33H40.4672V68.4ZM57.0272 68.4H58.9572V70.33H57.0272V68.4Z" fill="white" stroke="white" stroke-width="0.5" stroke-miterlimit="10"/>
</svg>
