<svg width="61" height="43" viewBox="0 0 61 43" fill="none" xmlns="http://www.w3.org/2000/svg">
<path d="M50.1065 17.1774V14.5242H1.9649C2.33417 15.9435 3.52226 17.1774 5.05553 17.1774H50.1146H50.1065ZM33.7061 18.9274C33.5536 22.3306 32.3414 24.7419 29.9813 26.1694C27.6533 27.5726 24.2415 27.9274 19.6658 27.2419L16.0694 42.1048C15.9731 42.5081 15.6199 42.7742 15.2265 42.7742H0.953423C0.351351 42.7742 -0.0660849 42.1774 0.126578 41.621L5.60141 18.9274H5.04751C2.26192 18.9274 0.25502 16.4677 0.0864399 13.8065C-0.0981953 12.6613 0.0703846 10.6452 0.0703846 9.26613C0.0784122 6.45161 2.11743 3.75806 5.04751 3.75806C18.4617 3.75806 32.4618 3.41129 46.0606 3.54839V0.870968C46.0606 0.395161 46.454 0 46.9276 0H52.2579C52.7315 0 53.1249 0.395161 53.1249 0.870968V3.66935C54.1926 3.70161 55.2603 3.73387 56.3279 3.76613C56.7935 3.77419 57.1628 4.16935 57.1628 4.6371V5.82258H60.133C60.6066 5.82258 61 6.21774 61 6.69355V12.0484C61 12.5242 60.6066 12.9194 60.133 12.9194H57.1708V13.6532C57.1708 14.129 56.7775 14.5242 56.3038 14.5242H51.8485V18.0484C51.8405 18.5242 51.4471 18.9194 50.9735 18.9194H33.7061V18.9274ZM19.8986 18.9274H7.39157L2.05321 41.0242H14.5602C16.3424 33.6532 18.1165 26.2903 19.8986 18.9274ZM20.0752 25.5403C24.1613 26.1452 27.1395 25.8548 29.0983 24.6774C30.8964 23.5968 31.8357 21.6694 31.9721 18.9274H28.9136C28.5122 19.9839 28.5443 20.9516 29.2267 21.879C29.6441 22.4435 29.2588 23.2339 28.5765 23.2661C27.1475 23.2823 25.823 23.1613 24.7553 22.0645C24.0409 21.3226 23.6395 20.2742 23.5431 18.9355H21.6807L20.0832 25.5484L20.0752 25.5403ZM57.2591 7.57258V11.1855H59.266V7.57258H57.2591ZM51.3909 1.74194H47.7946V3.57258C48.9907 3.58871 50.1948 3.60484 51.3909 3.6371V1.74194ZM55.4369 12.7823V5.5H5.04751C3.08877 5.5 1.82041 7.41935 1.81238 9.25H21.9216C23.0615 9.25 23.0615 10.9919 21.9216 10.9919H1.81238V12.7823H55.4369ZM25.2771 18.9274C25.3815 20.1694 25.823 21.129 27.0913 21.4274C26.8585 20.6048 26.8826 19.75 27.0994 18.9274H25.2771Z" fill="white"/>
<path d="M45.9964 32.4597V24.0726C45.9964 21.4194 41.9665 21.4113 41.9665 24.0726V32.4597H45.9964ZM47.7304 36.8064V42.129C47.7304 42.621 47.337 43 46.8634 43H41.0995C40.6259 43 40.2406 42.6129 40.2406 42.129V36.8064C40.2406 36.3306 40.6259 35.9355 41.0995 35.9355H41.2119V34.2097H41.0995C40.6259 34.2097 40.2406 33.8145 40.2406 33.3387V24.0726C40.2406 19.129 47.7304 19.121 47.7304 24.0726V33.3387C47.7304 33.8145 47.337 34.2097 46.8634 34.2097H46.751V35.9355H46.8634C47.337 35.9355 47.7304 36.3306 47.7304 36.8064ZM45.9964 41.25V37.6774H41.9665V41.25H45.9964ZM45.009 34.2016H42.9459V35.9274H45.009V34.2016Z" fill="white"/>
<path d="M55.5011 32.4597V24.0726C55.5011 21.4194 51.4712 21.4113 51.4712 24.0726V32.4597H55.5011ZM57.235 36.8064V42.129C57.235 42.621 56.8417 43 56.3681 43H50.6042C50.1306 43 49.7453 42.6129 49.7453 42.129V36.8064C49.7453 36.3306 50.1306 35.9355 50.6042 35.9355H50.7166V34.2097H50.6042C50.1306 34.2097 49.7453 33.8145 49.7453 33.3387V24.0726C49.7453 19.129 57.235 19.121 57.235 24.0726V33.3387C57.235 33.8145 56.8417 34.2097 56.3681 34.2097H56.2557V35.9355H56.3681C56.8417 35.9355 57.235 36.3306 57.235 36.8064ZM55.5011 41.25V37.6774H51.4712V41.25H55.5011ZM54.5217 34.2016H52.4586V35.9274H54.5217V34.2016Z" fill="white"/>
</svg>
