<svg width="57" height="58" viewBox="0 0 57 58" fill="none" xmlns="http://www.w3.org/2000/svg">
<path fill-rule="evenodd" clip-rule="evenodd" d="M27.3622 10.0662V1.62993C27.3622 0.880047 27.9758 0.275024 28.7259 0.275024H35.5868C36.8482 0.275024 37.871 1.2976 37.871 2.55877V7.11774C37.871 8.37892 36.8482 9.40149 35.5868 9.40149H29.6463V10.0747L55.1981 22.2092C56.1611 22.6694 56.681 23.726 56.4424 24.7657C56.2038 25.8053 55.2833 26.5466 54.2179 26.5466H53.5787V50.2192H53.8941C55.1554 50.2192 56.1782 51.2418 56.1782 52.503V54.9997C56.1782 56.2609 55.1554 57.2835 53.8941 57.275H3.10595C1.84456 57.275 0.821811 56.2524 0.821811 54.9997V52.503C0.821811 51.2418 1.84456 50.2192 3.10595 50.2192H3.4213V26.5466H2.78208C1.71672 26.5466 0.796243 25.8053 0.557601 24.7657C0.318959 23.726 0.838857 22.6609 1.80195 22.2092L27.3537 10.0747L27.3622 10.0662ZM53.9026 52.4944H3.10595V54.9827H53.9026V52.4944ZM46.8882 50.2107H51.3031V26.5381H5.70545V50.2107H10.1203V36.5423C10.1203 33.9007 12.2596 31.7618 14.9017 31.7618H14.9358C17.5779 31.7618 19.7171 33.9007 19.7171 36.5423V50.2107H23.7059V34.2671C23.7059 31.6254 25.8451 29.4865 28.4872 29.4865H28.5213C31.1634 29.4865 33.3027 31.6254 33.3027 34.2671V50.2107H37.2914V36.5423C37.2914 33.9007 39.4306 31.7618 42.0728 31.7618H42.1068C44.749 31.7618 46.8882 33.9007 46.8882 36.5423V50.2107ZM17.4415 50.2107V36.5423C17.4415 35.1618 16.325 34.0455 14.9443 34.0455H14.9102C13.5295 34.0455 12.413 35.1618 12.413 36.5423V50.2107H17.45H17.4415ZM31.0271 50.2107V34.2671C31.0271 32.8866 29.9105 31.7703 28.5298 31.7703H28.4957C27.115 31.7703 25.9985 32.8866 25.9985 34.2671V50.2107H31.0356H31.0271ZM44.6041 50.2107V36.5423C44.6041 35.1618 43.4876 34.0455 42.1068 34.0455H42.0728C40.692 34.0455 39.5755 35.1618 39.5755 36.5423V50.2107H44.6126H44.6041ZM28.5043 12.0517L54.2264 24.2629H2.79061L28.5128 12.0517H28.5043ZM28.5043 14.9063C26.3394 14.9063 24.5837 16.6618 24.5837 18.8262C24.5837 20.9907 26.3394 22.7461 28.5043 22.7461C30.6691 22.7461 32.4248 20.9907 32.4248 18.8262C32.4248 16.6618 30.6691 14.9063 28.5043 14.9063ZM28.5043 17.1816C29.4077 17.1816 30.1407 17.9144 30.1407 18.8177C30.1407 19.721 29.4077 20.4538 28.5043 20.4538C27.6008 20.4538 26.8679 19.721 26.8679 18.8177C26.8679 17.9144 27.6008 17.1816 28.5043 17.1816ZM29.6463 7.10922H35.5868V2.55877H29.6463V7.11774V7.10922Z" fill="white"/>
</svg>
