<svg width="55" height="55" viewBox="0 0 55 55" fill="none" xmlns="http://www.w3.org/2000/svg">
<path d="M1.14808 55H53.8519C54.4798 55 55 54.4887 55 53.8519V32.0833C55 31.5362 54.6143 31.0608 54.0851 30.9622L43.5462 28.8544V6.87051C43.5462 6.82567 43.5192 6.78082 43.5103 6.71804C43.5013 6.63731 43.4834 6.55659 43.4654 6.48483C43.4385 6.40411 43.3937 6.35029 43.3668 6.27854C43.3399 6.23369 43.3309 6.18885 43.295 6.15297L38.7027 0.430528C38.4874 0.152479 38.1556 0 37.8058 0H17.1853C16.8444 0 16.5126 0.161448 16.2883 0.439498L11.705 6.17091C11.6691 6.21575 11.6601 6.2606 11.6332 6.30545C11.5884 6.3772 11.5525 6.43999 11.5346 6.51174C11.5077 6.59247 11.4987 6.66422 11.4897 6.74494C11.4808 6.78979 11.4538 6.83464 11.4538 6.87948V28.8544L0.914873 30.9622C0.385682 31.0698 0 31.5362 0 32.0833V53.8519C0 54.4798 0.511252 55 1.14808 55ZM43.5372 31.1864L52.7038 33.0161V52.6949H43.5372V31.1774V31.1864ZM26.3519 52.7038H22.9167V38.9538H26.3519V52.7038ZM32.0833 52.7038H28.6481V38.9538H32.0833V52.7038ZM17.7414 2.29615H37.2676L40.0212 5.73141H14.9967L17.7503 2.29615H17.7414ZM13.75 8.01859H41.25V52.7038H34.3795V37.8058C34.3795 37.1779 33.8682 36.6577 33.2314 36.6577H21.7776C21.1497 36.6577 20.6295 37.1689 20.6295 37.8058V52.7038H13.759V8.01859H13.75ZM2.29615 33.0251L11.4628 31.1954V52.7128H2.29615V33.0251Z" fill="white"/>
<path d="M22.54 24.8092C22.4592 25.2487 22.6386 25.6882 23.0064 25.9393C23.3741 26.1905 23.8584 26.2174 24.2352 25.9931L27.5 24.1365L30.7648 26.0021C30.9353 26.1008 31.1416 26.1546 31.3389 26.1546C31.5721 26.1546 31.7963 26.0828 32.0026 25.9483C32.3703 25.6972 32.5497 25.2487 32.469 24.8182L31.7694 20.8986L34.523 18.1629C34.828 17.858 34.9356 17.3916 34.801 16.979C34.6665 16.5664 34.2988 16.2704 33.8772 16.2076L30.1729 15.7053L28.5584 12.1445C28.3611 11.7229 27.9485 11.4538 27.5 11.4538C27.0515 11.4538 26.6389 11.714 26.4596 12.1265L24.8451 15.6874L21.1407 16.1897C20.7012 16.2435 20.3514 16.5484 20.2169 16.961C20.0824 17.3736 20.181 17.831 20.4949 18.145L23.2485 20.8806L22.5489 24.8002L22.54 24.8092ZM25.7779 17.8849C26.1636 17.8311 26.4954 17.5799 26.6748 17.2211L27.509 15.3914L28.3431 17.2211C28.5046 17.5799 28.8364 17.8311 29.24 17.8849L31.2761 18.1629L29.7513 19.6877C29.4912 19.9478 29.3656 20.3335 29.4284 20.6923L29.8051 22.7911L28.1009 21.8134C27.9305 21.7148 27.7242 21.661 27.5269 21.661C27.3296 21.661 27.1412 21.7058 26.9529 21.8134L25.2487 22.7911L25.6254 20.6923C25.6972 20.3245 25.5716 19.9478 25.3025 19.6877L23.7777 18.1629L25.7689 17.8849H25.7779Z" fill="white"/>
</svg>
