<svg width="53" height="58" viewBox="0 0 53 58" fill="none" xmlns="http://www.w3.org/2000/svg">
<path d="M49.5564 12.7512V5.39419C49.5564 4.79633 49.0809 4.32302 48.4987 4.32302H35.0929C30.657 4.05731 27.2871 0.619623 27.2543 0.586409C26.8526 0.17123 26.131 0.17123 25.7375 0.586409C25.7047 0.619623 22.3348 4.05731 17.8989 4.32302H4.48486C3.89451 4.32302 3.42715 4.80463 3.42715 5.39419V12.7512C1.77089 13.0252 0.5 14.47 0.5 16.2221V18.2315C0.5 19.9836 1.77089 21.4284 3.42715 21.7024V49.4198H2.68921C2.09886 49.4198 1.6315 49.9014 1.6315 50.491V56.2039C1.6315 56.8017 2.10706 57.275 2.68921 57.275H50.3108C50.8929 57.275 51.3685 56.7934 51.3685 56.2039V50.491C51.3685 49.8931 50.8929 49.4198 50.3108 49.4198H49.5728V21.7024C51.2291 21.4284 52.5 19.9836 52.5 18.2315V16.2221C52.5 14.47 51.2291 13.0252 49.5728 12.7512H49.5564ZM47.4328 12.7013H35.2077C35.3061 12.1782 35.4044 11.6551 35.4618 11.1071L35.9702 6.47365H47.4246V12.7013H47.4328ZM26.4918 2.78686C27.7381 3.84972 30.4193 5.80937 33.8548 6.3408L33.3546 10.8663C33.1004 13.2328 32.3707 15.3917 31.19 17.2766C29.8617 19.394 28.2792 20.8223 26.4836 21.5281C24.688 20.8223 23.1055 19.3857 21.7772 17.2766C20.5965 15.3834 19.8668 13.2245 19.6126 10.858L19.1206 6.33249C22.5561 5.79276 25.2373 3.84142 26.4836 2.77856L26.4918 2.78686ZM5.54257 6.47365H16.997L17.5054 11.1071C17.5628 11.6468 17.6611 12.1782 17.7595 12.7013H5.54257V6.47365ZM2.61542 18.2315V16.2221C2.61542 15.4664 3.22217 14.8437 3.97651 14.8437H18.3171C18.7353 16.1141 19.2928 17.3098 19.9898 18.4391C20.2521 18.8543 20.5227 19.2363 20.8015 19.6099H3.97651C3.23037 19.6099 2.61542 18.9955 2.61542 18.2315ZM21.5722 34.5149H11.1509V32.4805H21.5722V34.5149ZM11.1509 36.6655H21.5722V49.4198H11.1509V36.6655ZM49.2367 55.1327H3.73873V51.5705H49.2367V55.1327ZM23.6876 49.4198V31.401C23.6876 30.8032 23.2121 30.3299 22.6299 30.3299H10.085C9.49464 30.3299 9.02728 30.8115 9.02728 31.401V49.4198H5.54257V21.7606H22.7939C23.827 22.6407 24.9421 23.2884 26.1556 23.7036C26.2622 23.7451 26.377 23.7617 26.4918 23.7617C26.6066 23.7617 26.7214 23.7451 26.828 23.7036C28.0333 23.2967 29.1566 22.6407 30.1897 21.7606H47.441V49.4198H23.6876ZM50.3682 18.2398C50.3682 18.9955 49.7614 19.6182 49.0071 19.6182H32.1739C32.4527 19.2446 32.7315 18.8626 32.9939 18.4474C33.6908 17.3264 34.2483 16.1224 34.6665 14.8603H49.0071C49.7532 14.8603 50.3682 15.4747 50.3682 16.2387V18.2481V18.2398Z" fill="white"/>
<path d="M44.0055 30.3299H26.951C26.3606 30.3299 25.8933 30.8115 25.8933 31.401V41.0249C25.8933 41.6228 26.3688 42.0961 26.951 42.0961H44.0055C44.5959 42.0961 45.0632 41.6144 45.0632 41.0249V31.401C45.0632 30.8032 44.5877 30.3299 44.0055 30.3299ZM42.9478 35.146H36.5442V32.4888H42.9478V35.146ZM34.4123 32.4805V35.1376H28.0087V32.4805H34.4123ZM28.0087 37.2883H34.4123V39.9454H28.0087V37.2883ZM36.5359 39.9537V37.2966H42.9396V39.9537H36.5359Z" fill="white"/>
</svg>
