<svg width="85" height="56" viewBox="0 0 85 56" fill="none" xmlns="http://www.w3.org/2000/svg">
<path fill-rule="evenodd" clip-rule="evenodd" d="M78.956 50.6963H73.632C73.0904 50.6963 72.6498 50.2505 72.6498 49.7024C72.6498 49.1544 73.0904 48.7086 73.632 48.7086H78.956C79.1947 48.7086 79.828 48.7086 80.3513 47.0367L82.4809 40.3025C82.5543 40.0796 82.6002 39.7267 82.1871 39.1601C79.672 35.6676 66.8209 32.5003 62.6994 32.5003H10.478C6.06269 32.5003 2.47356 36.132 2.47356 40.5998C2.47356 46.2007 6.94391 48.6993 11.3684 48.6993C11.9099 48.6993 12.3506 49.1451 12.3506 49.6931C12.3506 50.2412 11.9099 50.687 11.3684 50.687C4.97035 50.687 0.5 46.5351 0.5 40.5905C0.5 35.0267 4.97035 30.4939 10.478 30.4939H62.7085C66.6189 30.4939 80.5716 33.5127 83.7844 37.9711C84.6472 39.1693 84.5738 40.2189 84.3627 40.897L82.233 47.6311C81.5905 49.656 80.489 50.687 78.9652 50.687L78.956 50.6963ZM58.4952 50.6963H26.496C25.9544 50.6963 25.5138 50.2505 25.5138 49.7024C25.5138 49.1544 25.9544 48.7086 26.496 48.7086H58.4952C59.0368 48.7086 59.4774 49.1544 59.4774 49.7024C59.4774 50.2505 59.0368 50.6963 58.4952 50.6963Z" fill="white"/>
<path fill-rule="evenodd" clip-rule="evenodd" d="M81.3702 43.4606C79.1763 43.4606 77.1752 42.3367 76.0186 40.4419C74.8528 38.547 74.7427 36.2249 75.7157 34.2372C75.9544 33.7449 76.5418 33.5406 77.0375 33.7913C77.524 34.0328 77.726 34.6366 77.4781 35.1289C76.808 36.4943 76.8906 38.0919 77.6893 39.4016C78.4879 40.7019 79.8648 41.4729 81.3702 41.4729C81.7924 41.4729 82.2147 41.4079 82.6186 41.2871C83.1326 41.1292 83.6834 41.4264 83.8486 41.9559C84.0047 42.4853 83.7109 43.0333 83.1877 43.2005C82.6002 43.377 81.9944 43.4699 81.3794 43.4699L81.3702 43.4606Z" fill="white"/>
<path fill-rule="evenodd" clip-rule="evenodd" d="M18.9322 56C13.9386 56 9.87213 51.8852 9.87213 46.8323C9.87213 41.7794 13.9386 37.6646 18.9322 37.6646C23.9257 37.6646 27.9922 41.7794 27.9922 46.8323C27.9922 51.8852 23.9257 56 18.9322 56ZM18.9322 39.6616C15.0218 39.6616 11.8365 42.8754 11.8365 46.8416C11.8365 50.8078 15.0218 54.0216 18.9322 54.0216C22.8426 54.0216 26.0278 50.7985 26.0278 46.8416C26.0278 42.8847 22.8426 39.6616 18.9322 39.6616Z" fill="white"/>
<path fill-rule="evenodd" clip-rule="evenodd" d="M66.059 56C61.0654 56 56.999 51.8852 56.999 46.8323C56.999 41.7794 61.0654 37.6646 66.059 37.6646C71.0526 37.6646 75.119 41.7794 75.119 46.8323C75.119 51.8852 71.0526 56 66.059 56ZM66.059 39.6616C62.1486 39.6616 58.9634 42.8754 58.9634 46.8416C58.9634 50.8078 62.1486 54.0216 66.059 54.0216C69.9694 54.0216 73.1547 50.7985 73.1547 46.8416C73.1547 42.8847 69.9694 39.6616 66.059 39.6616Z" fill="white"/>
<path fill-rule="evenodd" clip-rule="evenodd" d="M18.9322 50.6963C16.8301 50.6963 15.1135 48.9594 15.1135 46.8323C15.1135 44.7053 16.8301 42.9683 18.9322 42.9683C21.0342 42.9683 22.7508 44.7053 22.7508 46.8323C22.7508 48.9594 21.0342 50.6963 18.9322 50.6963ZM18.9322 44.9653C17.9132 44.9653 17.0779 45.8013 17.0779 46.8323C17.0779 47.8633 17.9041 48.7086 18.9322 48.7086C19.9602 48.7086 20.7864 47.8726 20.7864 46.8323C20.7864 45.792 19.9602 44.9653 18.9322 44.9653Z" fill="white"/>
<path fill-rule="evenodd" clip-rule="evenodd" d="M66.059 50.6963C63.9569 50.6963 62.2404 48.9594 62.2404 46.8323C62.2404 44.7053 63.9569 42.9683 66.059 42.9683C68.1611 42.9683 69.8776 44.7053 69.8776 46.8323C69.8776 48.9594 68.1611 50.6963 66.059 50.6963ZM66.059 44.9653C65.0401 44.9653 64.2048 45.8013 64.2048 46.8323C64.2048 47.8633 65.0309 48.7086 66.059 48.7086C67.0871 48.7086 67.9132 47.8726 67.9132 46.8323C67.9132 45.792 67.0871 44.9653 66.059 44.9653Z" fill="white"/>
<path fill-rule="evenodd" clip-rule="evenodd" d="M61.0195 32.491C60.478 32.491 60.0373 32.0451 60.0373 31.4971C60.0373 25.5618 49.8574 20.3603 43.6981 20.3603H25.6698C19.4095 20.3603 11.4693 25.6082 11.4693 31.4971C11.4693 32.0451 11.0287 32.491 10.4871 32.491C9.94556 32.491 9.50495 32.0451 9.50495 31.4971C9.50495 24.4286 18.3998 18.3632 25.679 18.3632H43.7073C50.9314 18.3632 62.0109 24.2428 62.0109 31.4971C62.0109 32.0451 61.5703 32.491 61.0287 32.491H61.0195Z" fill="white"/>
<path fill-rule="evenodd" clip-rule="evenodd" d="M35.7488 32.5003C35.2072 32.5003 34.7666 32.0544 34.7666 31.5064V19.3664C34.7666 18.8184 35.2072 18.3725 35.7488 18.3725C36.2903 18.3725 36.7309 18.8184 36.7309 19.3664V31.5064C36.7309 32.0544 36.2903 32.5003 35.7488 32.5003Z" fill="white"/>
<path fill-rule="evenodd" clip-rule="evenodd" d="M6.7695 37.9433H2.25326C1.71168 37.9433 1.27107 37.4974 1.27107 36.9494C1.27107 36.4014 1.71168 35.9555 2.25326 35.9555H6.7695C7.31109 35.9555 7.7517 36.4014 7.7517 36.9494C7.7517 37.4974 7.31109 37.9433 6.7695 37.9433Z" fill="white"/>
<path fill-rule="evenodd" clip-rule="evenodd" d="M6.7695 42.6061H1.53727C0.995686 42.6061 0.555076 42.1602 0.555076 41.6122C0.555076 41.0642 0.995686 40.6183 1.53727 40.6183H6.7695C7.31109 40.6183 7.7517 41.0642 7.7517 41.6122C7.7517 42.1602 7.31109 42.6061 6.7695 42.6061Z" fill="white"/>
<path fill-rule="evenodd" clip-rule="evenodd" d="M45.8461 46.8044C45.6992 46.8044 45.5615 46.7766 45.433 46.7116L42.5048 45.3276L39.5765 46.7116C39.2553 46.8602 38.8697 46.823 38.576 46.6187C38.2823 46.405 38.1354 46.0521 38.1813 45.6898L38.576 42.4482L36.3729 40.061C36.1251 39.801 36.0425 39.4201 36.1526 39.0765C36.2628 38.7328 36.5474 38.4727 36.9053 38.4077L40.0814 37.7854L41.6419 34.9245C41.8163 34.6087 42.1468 34.4137 42.5048 34.4137C42.8628 34.4137 43.1932 34.6087 43.3676 34.9245L44.9281 37.7854L48.1042 38.4077C48.453 38.4727 48.7467 38.7328 48.8569 39.0765C48.967 39.4201 48.8844 39.801 48.6366 40.061L46.4335 42.4482L46.8282 45.6898C46.8741 46.0521 46.7181 46.405 46.4335 46.6187C46.2591 46.7487 46.0572 46.8137 45.8552 46.8137L45.8461 46.8044ZM39.0258 40.0053L40.3293 41.4171C40.5312 41.6308 40.623 41.928 40.5863 42.216L40.3476 44.1387L42.0825 43.3213C42.3487 43.1912 42.6516 43.1912 42.9178 43.3213L44.6527 44.1387L44.4141 42.216C44.3773 41.9187 44.4691 41.6308 44.6711 41.4171L45.9746 40.0053L44.102 39.6431C43.8174 39.5873 43.5696 39.4016 43.4227 39.1508L42.4956 37.4603L41.5685 39.1508C41.4308 39.4109 41.1829 39.5873 40.8984 39.6431L39.0258 40.0053Z" fill="white"/>
<path fill-rule="evenodd" clip-rule="evenodd" d="M39.8336 20.3603C39.292 20.3603 38.8514 19.9144 38.8514 19.3664V14.2856C38.8514 12.4837 37.401 11.0254 35.6294 11.0254C33.8578 11.0254 32.4075 12.493 32.4075 14.2856V19.3664C32.4075 19.9144 31.9669 20.3603 31.4253 20.3603C30.8837 20.3603 30.4431 19.9144 30.4431 19.3664V14.2856C30.4431 11.3876 32.7746 9.02836 35.6386 9.02836C38.5026 9.02836 40.8341 11.3876 40.8341 14.2856V19.3664C40.8341 19.9144 40.3935 20.3603 39.8519 20.3603H39.8336Z" fill="white"/>
<path fill-rule="evenodd" clip-rule="evenodd" d="M35.6202 5.61951C35.0787 5.61951 34.638 5.17366 34.638 4.62564V0.993863C34.638 0.445845 35.0787 0 35.6202 0C36.1618 0 36.6024 0.445845 36.6024 0.993863V4.62564C36.6024 5.17366 36.1618 5.61951 35.6202 5.61951Z" fill="white"/>
<path fill-rule="evenodd" clip-rule="evenodd" d="M40.5955 6.97562C40.4302 6.97562 40.2558 6.92918 40.1089 6.84558C39.6408 6.56693 39.4756 5.96318 39.7509 5.48947L41.5409 2.34069C41.8163 1.86698 42.413 1.69978 42.8811 1.97844C43.3493 2.25709 43.5145 2.86084 43.2391 3.33455L41.4491 6.48333C41.2655 6.79914 40.9351 6.98491 40.5955 6.98491V6.97562Z" fill="white"/>
<path fill-rule="evenodd" clip-rule="evenodd" d="M30.645 6.97562C30.3054 6.97562 29.9749 6.79914 29.7913 6.47404L28.0014 3.32526C27.726 2.85155 27.8912 2.23851 28.3594 1.96915C28.8275 1.6905 29.4333 1.85769 29.6996 2.3314L31.4895 5.48018C31.7649 5.95389 31.5997 6.56693 31.1315 6.83629C30.9755 6.92918 30.8103 6.96633 30.645 6.96633V6.97562Z" fill="white"/>
</svg>
