<svg width="69" height="69" viewBox="0 0 69 69" fill="none" xmlns="http://www.w3.org/2000/svg">
<path d="M67.9602 31.9737L37.0095 1.00895C36.3372 0.359782 35.4381 0 34.5 0C33.5619 0 32.6706 0.359782 31.9905 1.00895L1.03977 31.9737C0.375255 32.6385 0 33.5458 0 34.4844C0 35.4229 0.375255 36.3302 1.03977 36.995L31.9905 67.9598C32.655 68.6246 33.5619 69 34.5 69C35.4381 69 36.345 68.6246 37.0095 67.9598L67.9602 36.995C68.6247 36.3302 69 35.4229 69 34.4844C69 33.5458 68.6247 32.6385 67.9602 31.9737ZM66.2872 35.3212L35.3365 66.286C34.8674 66.7318 34.1326 66.7318 33.6635 66.286L2.71278 35.3212C2.25153 34.8598 2.25153 34.1089 2.71278 33.6475L33.6635 2.6749C33.8824 2.45591 34.1873 2.33076 34.5 2.33076C34.8127 2.33076 35.1176 2.45591 35.3365 2.6749L66.2872 33.6396C66.7485 34.1011 66.7485 34.852 66.2872 35.3134V35.3212ZM53.4191 26.2015H52.2386V23.8317C52.2386 23.206 51.9884 22.6037 51.5428 22.1579C51.0972 21.7121 50.4952 21.4618 49.8698 21.4618H47.501C46.8756 21.4618 46.2736 21.7121 45.828 22.1579C45.3824 22.6037 45.1322 23.206 45.1322 23.8317V26.2015H42.7634V23.8317C42.7634 23.206 42.5133 22.6037 42.0676 22.1579C41.622 21.7121 41.0201 21.4618 40.3946 21.4618H38.0258C37.4004 21.4618 36.7984 21.7121 36.3528 22.1579C35.9072 22.6037 35.657 23.206 35.657 23.8317V26.2015H33.2882V23.8317C33.2882 23.206 33.0381 22.6037 32.5925 22.1579C32.1468 21.7121 31.5449 21.4618 30.9194 21.4618H28.5506C27.9252 21.4618 27.3232 21.7121 26.8776 22.1579C26.432 22.6037 26.1819 23.206 26.1819 23.8317V26.2015H23.8131V23.8317C23.8131 23.206 23.5629 22.6037 23.1173 22.1579C22.6717 21.7121 22.0697 21.4618 21.4443 21.4618H19.0755C18.45 21.4618 17.8481 21.7121 17.4024 22.1579C16.9568 22.6037 16.7067 23.206 16.7067 23.8317V26.2015H15.5262C14.9007 26.2015 14.2988 26.4518 13.8532 26.8976C13.4075 27.3435 13.1574 27.9457 13.1574 28.5714V29.7524C13.1574 30.3781 13.4075 30.9804 13.8532 31.4262C14.2988 31.872 14.9007 32.1223 15.5262 32.1223H16.7067V36.8542H15.5262C14.9007 36.8542 14.2988 37.1045 13.8532 37.5503C13.4075 37.9961 13.1574 38.5984 13.1574 39.2241V40.4051C13.1574 41.0308 13.4075 41.6331 13.8532 42.0789C14.2988 42.5247 14.9007 42.775 15.5262 42.775H16.7067V45.1449C16.7067 45.7706 16.9568 46.3728 17.4024 46.8186C17.8481 47.2645 18.45 47.5147 19.0755 47.5147H21.4443C22.0697 47.5147 22.6717 47.2645 23.1173 46.8186C23.5629 46.3728 23.8131 45.7706 23.8131 45.1449V42.775H26.1819V45.1449C26.1819 45.7706 26.432 46.3728 26.8776 46.8186C27.3232 47.2645 27.9252 47.5147 28.5506 47.5147H30.9194C31.5449 47.5147 32.1468 47.2645 32.5925 46.8186C33.0381 46.3728 33.2882 45.7706 33.2882 45.1449V42.775H35.657V45.1449C35.657 45.7706 35.9072 46.3728 36.3528 46.8186C36.7984 47.2645 37.4004 47.5147 38.0258 47.5147H40.3946C41.0201 47.5147 41.622 47.2645 42.0676 46.8186C42.5133 46.3728 42.7634 45.7706 42.7634 45.1449V42.775H45.1322V45.1449C45.1322 45.7706 45.3824 46.3728 45.828 46.8186C46.2736 47.2645 46.8756 47.5147 47.501 47.5147H49.8698C50.4952 47.5147 51.0972 47.2645 51.5428 46.8186C51.9884 46.3728 52.2386 45.7706 52.2386 45.1449V42.775H53.4191C54.0445 42.775 54.6465 42.5247 55.0921 42.0789C55.5377 41.6331 55.7879 41.0308 55.7879 40.4051V39.2241C55.7879 38.5984 55.5377 37.9961 55.0921 37.5503C54.6465 37.1045 54.0445 36.8542 53.4191 36.8542H52.2386V32.1223H53.4191C54.0445 32.1223 54.6465 31.872 55.0921 31.4262C55.5377 30.9804 55.7879 30.3781 55.7879 29.7524V28.5714C55.7879 27.9457 55.5377 27.3435 55.0921 26.8976C54.6465 26.4518 54.0445 26.2015 53.4191 26.2015ZM47.5088 23.8317H49.8776V26.2015H47.5088V23.8317ZM38.0493 23.8317H40.4181V26.2015H38.0493V23.8317ZM28.5897 23.8317H30.9585V26.2015H28.5897V23.8317ZM19.1224 23.8317H21.4912V26.2015H19.1224V23.8317ZM19.1224 32.1145H21.4912V36.8464H19.1224V32.1145ZM42.7791 36.8464V32.1145H45.1479V36.8464H42.7791ZM40.4103 32.1145V36.8464H38.0415V32.1145H40.4103ZM35.6805 36.8464H33.3117V32.1145H35.6805V36.8464ZM30.9507 32.1145V36.8464H28.5819V32.1145H30.9507ZM26.2209 36.8464H23.8521V32.1145H26.2209V36.8464ZM21.4912 45.1292H19.1224V42.7593H21.4912V45.1292ZM30.9507 45.1292H28.5819V42.7593H30.9507V45.1292ZM40.4181 45.1292H38.0493V42.7593H40.4181V45.1292ZM49.8776 45.1292H47.5088V42.7593H49.8776V45.1292ZM53.4269 40.3973H15.5731V39.2163H53.4191V40.3973H53.4269ZM49.8776 36.8464H47.5088V32.1145H49.8776V36.8464ZM15.5731 29.7524V28.5714H53.4191V29.7524H15.5731Z" fill="white"/>
</svg>
