<svg width="73" height="40" viewBox="0 0 73 40" fill="none" xmlns="http://www.w3.org/2000/svg">
<path d="M65.9882 15.0045H54.7412L51.9295 4.11659C51.7977 3.58744 51.3232 3.21973 50.7872 3.21973H45.2164V1.20179C45.2164 0.538117 44.6892 0 44.039 0H34.6724C34.0221 0 33.4949 0.538117 33.4949 1.20179V3.21973H27.9242C27.3882 3.21973 26.9225 3.58744 26.7819 4.11659L26.0175 7.09417H10.5001V7.04036C10.5001 6.37668 9.97292 5.83857 9.3227 5.83857H1.17742C0.527203 5.83857 0 6.37668 0 7.04036V13.0942C0 13.7578 0.527203 14.296 1.17742 14.296H9.3227C9.97292 14.296 10.5001 13.7578 10.5001 13.0942V13.0314H24.4886L23.9789 15.0045H12.7232C8.85701 15.0045 5.70258 18.2152 5.70258 22.1704V28.574C5.70258 30.3587 6.83606 32.5561 8.28587 33.5605L15.1834 38.3498C16.5102 39.2735 18.8123 40 20.4203 40H58.2823C59.8902 40 62.1923 39.2735 63.5191 38.3498L70.4167 33.5605C71.8665 32.5561 73 30.3677 73 28.574V22.1704C73 18.2242 69.8544 15.0045 65.9794 15.0045H65.9882ZM35.8498 2.40359H42.8616V3.21973H35.8498V2.40359ZM8.14528 11.8834H2.35484V8.23318H8.14528V11.8834ZM10.5001 10.6188V9.48879H25.3936L25.13 10.5202L25.1036 10.6278H10.5001V10.6188ZM27.1861 12.0179L28.0735 8.6009L28.838 5.62332H49.8822L52.3073 15.0045H26.4129L27.1861 12.0179ZM8.0662 22.1704C8.0662 19.5426 10.1574 17.4081 12.7319 17.4081H65.997C68.5715 17.4081 70.6627 19.5426 70.6627 22.1704V22.9865H8.05742V22.1704H8.0662ZM63.4928 31.4888C63.4928 34.852 60.8128 37.5874 57.5178 37.5874C54.2228 37.5874 51.5429 34.852 51.5429 31.4888C51.5429 28.1256 54.2228 25.3901 57.5178 25.3901C60.8128 25.3901 63.4928 28.1256 63.4928 31.4888ZM45.3306 31.4888C45.3306 34.852 42.6507 37.5874 39.3557 37.5874C36.0607 37.5874 33.3807 34.852 33.3807 31.4888C33.3807 28.1256 36.0607 25.3901 39.3557 25.3901C42.6507 25.3901 45.3306 28.1256 45.3306 31.4888ZM27.1773 31.4888C27.1773 34.852 24.4974 37.5874 21.2023 37.5874C17.9073 37.5874 15.2274 34.852 15.2274 31.4888C15.2274 28.1256 17.9073 25.3901 21.2023 25.3901C24.4974 25.3901 27.1773 28.1256 27.1773 31.4888ZM8.05742 28.574V25.3901H15.4031C13.8391 26.9327 12.8637 29.0942 12.8637 31.4888C12.8637 32.4036 13.0131 33.2825 13.2767 34.1076L9.61266 31.5605C8.80429 30.9955 8.05742 29.5695 8.05742 28.565V28.574ZM26.9928 37.5874C28.5568 36.0448 29.5321 33.8834 29.5321 31.4888C29.5321 29.0942 28.5568 26.9327 26.9928 25.3901H33.5652C32.0012 26.9327 31.0259 29.0942 31.0259 31.4888C31.0259 33.8834 32.0012 36.0448 33.5652 37.5874H26.9928ZM45.1461 37.5874C46.7102 36.0448 47.6855 33.8834 47.6855 31.4888C47.6855 29.0942 46.7102 26.9327 45.1461 25.3901H51.7186C50.1546 26.9327 49.1792 29.0942 49.1792 31.4888C49.1792 33.8834 50.1546 36.0448 51.7186 37.5874H45.1461ZM70.654 28.574C70.654 29.5785 69.9159 31.0045 69.0987 31.5695L65.4346 34.1166C65.6982 33.2915 65.8476 32.4126 65.8476 31.4978C65.8476 29.1031 64.8723 26.9417 63.3083 25.3991H70.654V28.574Z" fill="white"/>
</svg>
