<svg width="51" height="51" viewBox="0 0 51 51" fill="none" xmlns="http://www.w3.org/2000/svg">
<path d="M25.5 0C11.4332 0 0 11.4332 0 25.5C0 39.5668 11.4332 51 25.5 51C39.5668 51 51 39.5668 51 25.5C51 20.6277 49.629 16.0498 47.2509 12.169C47.096 11.8979 46.8326 11.6965 46.5305 11.6191C46.2284 11.5416 45.9031 11.5881 45.6397 11.7508C45.3686 11.9134 45.1827 12.1845 45.113 12.4866C45.0433 12.7965 45.1053 13.1141 45.2757 13.3774C47.4368 16.9019 48.6839 21.0538 48.6839 25.4923C48.6839 38.312 38.3197 48.6762 25.5 48.6762C12.6803 48.6762 2.31607 38.3197 2.31607 25.5C2.31607 12.6803 12.6803 2.31607 25.5 2.31607C31.356 2.31607 36.6853 4.46947 40.7675 8.0404C40.9921 8.27278 41.3019 8.40447 41.6273 8.39672C41.9526 8.39672 42.2547 8.2418 42.4716 8.00167C42.6885 7.7538 42.7892 7.43621 42.7505 7.11088C42.7117 6.78554 42.5491 6.49894 42.2857 6.30529C37.8085 2.37804 31.9292 0 25.5 0ZM25.5 6.77005C15.1745 6.77005 6.77005 15.1668 6.77005 25.5C6.77005 30.2561 8.55164 34.6016 11.4796 37.9092C11.9057 38.3894 12.6416 38.4359 13.1218 38.0099C13.6021 37.5838 13.6485 36.848 13.2225 36.3677C10.6508 33.4707 9.09386 29.6829 9.09386 25.5C9.09386 16.4216 16.4294 9.09386 25.5 9.09386C34.5706 9.09386 41.9061 16.4294 41.9061 25.5C41.9061 34.5706 34.5706 41.9061 25.5 41.9061C22.3474 41.9061 19.4116 41.0153 16.9174 39.4816C16.654 39.3112 16.3364 39.2492 16.0266 39.319C15.7167 39.3887 15.4534 39.5746 15.2907 39.8457C15.128 40.1168 15.0738 40.4344 15.159 40.7365C15.2365 41.0386 15.4379 41.3019 15.709 41.4569C18.5595 43.2152 21.9213 44.23 25.5077 44.23C35.8332 44.23 44.2377 35.8332 44.2377 25.5C44.2377 15.1668 35.841 6.77005 25.5077 6.77005H25.5ZM25.2831 12.3704C24.8726 12.3859 24.5008 12.6183 24.3071 12.9824L20.9221 19.2334L14.0436 20.558C13.633 20.6355 13.2922 20.9376 13.1683 21.3326C13.0366 21.7277 13.1296 22.1692 13.4162 22.479L18.2342 27.6766L18.056 29.0709C18.0173 29.3808 18.0948 29.6906 18.2807 29.9307C18.4666 30.1786 18.7454 30.3335 19.0553 30.3723C19.3651 30.411 19.675 30.3258 19.9151 30.1321C20.1552 29.9385 20.3179 29.6596 20.3489 29.3498L20.6045 27.4133C20.651 27.0725 20.5348 26.7239 20.2947 26.4683L16.5301 22.4093L21.9058 21.3946C22.2544 21.3326 22.5565 21.108 22.7192 20.7981L25.3296 15.9646L27.94 20.7981C28.1027 21.108 28.397 21.3249 28.7379 21.3946L34.1368 22.4093L30.3723 26.4683C30.1321 26.7239 30.0237 27.0647 30.0624 27.4133L30.7518 32.8975L25.8408 30.5427C25.5232 30.3878 25.1437 30.3878 24.8261 30.5427L18.0018 33.8193C17.6997 33.9355 17.4519 34.1678 17.3279 34.4699C17.204 34.772 17.2195 35.1129 17.3589 35.4072C17.4983 35.7015 17.754 35.9262 18.0715 36.0191C18.3814 36.1121 18.7222 36.0734 19.0011 35.9029L25.3373 32.882L31.6736 35.9029C32.0532 36.0811 32.5024 36.0424 32.8433 35.8022C33.1841 35.5544 33.37 35.1438 33.3235 34.7256L32.4327 27.6457L37.2508 22.4635C37.5374 22.1537 37.6303 21.7199 37.4986 21.3171C37.367 20.9221 37.0339 20.62 36.6233 20.5425L29.7448 19.218L26.3598 12.9669C26.1507 12.5796 25.7479 12.3395 25.3063 12.355L25.2831 12.3704Z" fill="white"/>
</svg>
